%
M48
M72
T01C0.0320
T02C0.0400
T03C0.0433
T04C0.1260
%
T01
X2680Y4180
X10180Y4180
X11680Y4180
X15180Y4180
X16680Y4180
X24180Y4180
X27180Y4180
X28680Y4180
X30180Y4180
X30180Y7180
X28680Y7180
X27180Y7180
X24180Y7180
X16680Y7180
X15180Y7180
X11680Y7180
X10180Y7180
X2680Y7180
T02
X5180Y9180
X6180Y9180
X7180Y9180
X19180Y9180
X20180Y9180
X21180Y9180
X33180Y9180
X34180Y9180
X35180Y9180
T03
X36680Y4180
X31680Y4180
X31680Y2180
X36680Y2180
X22680Y2180
X17680Y2180
X17680Y4180
X22680Y4180
X8680Y4180
X3680Y4180
X3680Y2180
X8680Y2180
T04
X1680Y1680
X1680Y10680
X38680Y10680
X38680Y1680
M30
