G75*
%MOIN*%
%OFA0B0*%
%FSLAX24Y24*%
%IPPOS*%
%LPD*%
%AMOC8*
5,1,8,0,0,1.08239X$1,22.5*
%
%ADD10C,0.0120*%
%ADD11C,0.0060*%
%ADD12C,0.0030*%
%ADD13R,0.0100X0.0350*%
%ADD14C,0.0040*%
%ADD15C,0.0050*%
%ADD16C,0.0110*%
%ADD17C,0.0100*%
D10*
X002430Y005560D02*
X002680Y005560D01*
X002930Y005560D01*
X002930Y005810D02*
X002680Y005810D01*
X002430Y005810D01*
X016430Y005810D02*
X016680Y005810D01*
X016930Y005810D01*
X016930Y005560D02*
X016680Y005560D01*
X016430Y005560D01*
X029930Y005560D02*
X030180Y005560D01*
X030430Y005560D01*
X030430Y005810D02*
X030180Y005810D01*
X029930Y005810D01*
D11*
X030180Y005810D02*
X030180Y006280D01*
X029930Y006530D02*
X029904Y006528D01*
X029878Y006523D01*
X029853Y006515D01*
X029830Y006503D01*
X029808Y006489D01*
X029789Y006471D01*
X029771Y006452D01*
X029757Y006430D01*
X029745Y006407D01*
X029737Y006382D01*
X029732Y006356D01*
X029730Y006330D01*
X029730Y005030D01*
X029732Y005004D01*
X029737Y004978D01*
X029745Y004953D01*
X029757Y004930D01*
X029771Y004908D01*
X029789Y004889D01*
X029808Y004871D01*
X029830Y004857D01*
X029853Y004845D01*
X029878Y004837D01*
X029904Y004832D01*
X029930Y004830D01*
X030430Y004830D01*
X030456Y004832D01*
X030482Y004837D01*
X030507Y004845D01*
X030530Y004857D01*
X030552Y004871D01*
X030571Y004889D01*
X030589Y004908D01*
X030603Y004930D01*
X030615Y004953D01*
X030623Y004978D01*
X030628Y005004D01*
X030630Y005030D01*
X030630Y006330D01*
X030628Y006356D01*
X030623Y006382D01*
X030615Y006407D01*
X030603Y006430D01*
X030589Y006452D01*
X030571Y006471D01*
X030552Y006489D01*
X030530Y006503D01*
X030507Y006515D01*
X030482Y006523D01*
X030456Y006528D01*
X030430Y006530D01*
X029930Y006530D01*
X029130Y006680D02*
X029130Y006830D01*
X029128Y006847D01*
X029124Y006864D01*
X029117Y006880D01*
X029107Y006894D01*
X029094Y006907D01*
X029080Y006917D01*
X029064Y006924D01*
X029047Y006928D01*
X029030Y006930D01*
X028330Y006930D02*
X028313Y006928D01*
X028296Y006924D01*
X028280Y006917D01*
X028266Y006907D01*
X028253Y006894D01*
X028243Y006880D01*
X028236Y006864D01*
X028232Y006847D01*
X028230Y006830D01*
X028230Y006680D01*
X028280Y006630D01*
X028280Y004730D01*
X028230Y004680D01*
X028230Y004530D01*
X028232Y004513D01*
X028236Y004496D01*
X028243Y004480D01*
X028253Y004466D01*
X028266Y004453D01*
X028280Y004443D01*
X028296Y004436D01*
X028313Y004432D01*
X028330Y004430D01*
X029030Y004430D02*
X029047Y004432D01*
X029064Y004436D01*
X029080Y004443D01*
X029094Y004453D01*
X029107Y004466D01*
X029117Y004480D01*
X029124Y004496D01*
X029128Y004513D01*
X029130Y004530D01*
X029130Y004680D01*
X029080Y004730D01*
X029080Y006630D01*
X029130Y006680D01*
X027630Y006680D02*
X027630Y006830D01*
X027628Y006847D01*
X027624Y006864D01*
X027617Y006880D01*
X027607Y006894D01*
X027594Y006907D01*
X027580Y006917D01*
X027564Y006924D01*
X027547Y006928D01*
X027530Y006930D01*
X027630Y006680D02*
X027580Y006630D01*
X027580Y004730D01*
X027630Y004680D01*
X027630Y004530D01*
X027628Y004513D01*
X027624Y004496D01*
X027617Y004480D01*
X027607Y004466D01*
X027594Y004453D01*
X027580Y004443D01*
X027564Y004436D01*
X027547Y004432D01*
X027530Y004430D01*
X026830Y004430D02*
X026813Y004432D01*
X026796Y004436D01*
X026780Y004443D01*
X026766Y004453D01*
X026753Y004466D01*
X026743Y004480D01*
X026736Y004496D01*
X026732Y004513D01*
X026730Y004530D01*
X026730Y004680D01*
X026780Y004730D01*
X026780Y006630D01*
X026730Y006680D01*
X026730Y006830D01*
X026732Y006847D01*
X026736Y006864D01*
X026743Y006880D01*
X026753Y006894D01*
X026766Y006907D01*
X026780Y006917D01*
X026796Y006924D01*
X026813Y006928D01*
X026830Y006930D01*
X024630Y006830D02*
X024630Y006680D01*
X024580Y006630D01*
X024580Y004730D01*
X024630Y004680D01*
X024630Y004530D01*
X024628Y004513D01*
X024624Y004496D01*
X024617Y004480D01*
X024607Y004466D01*
X024594Y004453D01*
X024580Y004443D01*
X024564Y004436D01*
X024547Y004432D01*
X024530Y004430D01*
X023830Y004430D02*
X023813Y004432D01*
X023796Y004436D01*
X023780Y004443D01*
X023766Y004453D01*
X023753Y004466D01*
X023743Y004480D01*
X023736Y004496D01*
X023732Y004513D01*
X023730Y004530D01*
X023730Y004680D01*
X023780Y004730D01*
X023780Y006630D01*
X023730Y006680D01*
X023730Y006830D01*
X023732Y006847D01*
X023736Y006864D01*
X023743Y006880D01*
X023753Y006894D01*
X023766Y006907D01*
X023780Y006917D01*
X023796Y006924D01*
X023813Y006928D01*
X023830Y006930D01*
X024530Y006930D02*
X024547Y006928D01*
X024564Y006924D01*
X024580Y006917D01*
X024594Y006907D01*
X024607Y006894D01*
X024617Y006880D01*
X024624Y006864D01*
X024628Y006847D01*
X024630Y006830D01*
X030180Y005560D02*
X030180Y005080D01*
X017130Y005030D02*
X017130Y006330D01*
X017128Y006356D01*
X017123Y006382D01*
X017115Y006407D01*
X017103Y006430D01*
X017089Y006452D01*
X017071Y006471D01*
X017052Y006489D01*
X017030Y006503D01*
X017007Y006515D01*
X016982Y006523D01*
X016956Y006528D01*
X016930Y006530D01*
X016430Y006530D01*
X016404Y006528D01*
X016378Y006523D01*
X016353Y006515D01*
X016330Y006503D01*
X016308Y006489D01*
X016289Y006471D01*
X016271Y006452D01*
X016257Y006430D01*
X016245Y006407D01*
X016237Y006382D01*
X016232Y006356D01*
X016230Y006330D01*
X016230Y005030D01*
X016232Y005004D01*
X016237Y004978D01*
X016245Y004953D01*
X016257Y004930D01*
X016271Y004908D01*
X016289Y004889D01*
X016308Y004871D01*
X016330Y004857D01*
X016353Y004845D01*
X016378Y004837D01*
X016404Y004832D01*
X016430Y004830D01*
X016930Y004830D01*
X016956Y004832D01*
X016982Y004837D01*
X017007Y004845D01*
X017030Y004857D01*
X017052Y004871D01*
X017071Y004889D01*
X017089Y004908D01*
X017103Y004930D01*
X017115Y004953D01*
X017123Y004978D01*
X017128Y005004D01*
X017130Y005030D01*
X016680Y005080D02*
X016680Y005560D01*
X016680Y005810D02*
X016680Y006280D01*
X015630Y006680D02*
X015630Y006830D01*
X015628Y006847D01*
X015624Y006864D01*
X015617Y006880D01*
X015607Y006894D01*
X015594Y006907D01*
X015580Y006917D01*
X015564Y006924D01*
X015547Y006928D01*
X015530Y006930D01*
X015630Y006680D02*
X015580Y006630D01*
X015580Y004730D01*
X015630Y004680D01*
X015630Y004530D01*
X015628Y004513D01*
X015624Y004496D01*
X015617Y004480D01*
X015607Y004466D01*
X015594Y004453D01*
X015580Y004443D01*
X015564Y004436D01*
X015547Y004432D01*
X015530Y004430D01*
X014830Y004430D02*
X014813Y004432D01*
X014796Y004436D01*
X014780Y004443D01*
X014766Y004453D01*
X014753Y004466D01*
X014743Y004480D01*
X014736Y004496D01*
X014732Y004513D01*
X014730Y004530D01*
X014730Y004680D01*
X014780Y004730D01*
X014780Y006630D01*
X014730Y006680D01*
X014730Y006830D01*
X014732Y006847D01*
X014736Y006864D01*
X014743Y006880D01*
X014753Y006894D01*
X014766Y006907D01*
X014780Y006917D01*
X014796Y006924D01*
X014813Y006928D01*
X014830Y006930D01*
X012130Y006830D02*
X012130Y006680D01*
X012080Y006630D01*
X012080Y004730D01*
X012130Y004680D01*
X012130Y004530D01*
X012128Y004513D01*
X012124Y004496D01*
X012117Y004480D01*
X012107Y004466D01*
X012094Y004453D01*
X012080Y004443D01*
X012064Y004436D01*
X012047Y004432D01*
X012030Y004430D01*
X011330Y004430D02*
X011313Y004432D01*
X011296Y004436D01*
X011280Y004443D01*
X011266Y004453D01*
X011253Y004466D01*
X011243Y004480D01*
X011236Y004496D01*
X011232Y004513D01*
X011230Y004530D01*
X011230Y004680D01*
X011280Y004730D01*
X011280Y006630D01*
X011230Y006680D01*
X011230Y006830D01*
X011232Y006847D01*
X011236Y006864D01*
X011243Y006880D01*
X011253Y006894D01*
X011266Y006907D01*
X011280Y006917D01*
X011296Y006924D01*
X011313Y006928D01*
X011330Y006930D01*
X012030Y006930D02*
X012047Y006928D01*
X012064Y006924D01*
X012080Y006917D01*
X012094Y006907D01*
X012107Y006894D01*
X012117Y006880D01*
X012124Y006864D01*
X012128Y006847D01*
X012130Y006830D01*
X010630Y006830D02*
X010630Y006680D01*
X010580Y006630D01*
X010580Y004730D01*
X010630Y004680D01*
X010630Y004530D01*
X010628Y004513D01*
X010624Y004496D01*
X010617Y004480D01*
X010607Y004466D01*
X010594Y004453D01*
X010580Y004443D01*
X010564Y004436D01*
X010547Y004432D01*
X010530Y004430D01*
X009830Y004430D02*
X009813Y004432D01*
X009796Y004436D01*
X009780Y004443D01*
X009766Y004453D01*
X009753Y004466D01*
X009743Y004480D01*
X009736Y004496D01*
X009732Y004513D01*
X009730Y004530D01*
X009730Y004680D01*
X009780Y004730D01*
X009780Y006630D01*
X009730Y006680D01*
X009730Y006830D01*
X009732Y006847D01*
X009736Y006864D01*
X009743Y006880D01*
X009753Y006894D01*
X009766Y006907D01*
X009780Y006917D01*
X009796Y006924D01*
X009813Y006928D01*
X009830Y006930D01*
X010530Y006930D02*
X010547Y006928D01*
X010564Y006924D01*
X010580Y006917D01*
X010594Y006907D01*
X010607Y006894D01*
X010617Y006880D01*
X010624Y006864D01*
X010628Y006847D01*
X010630Y006830D01*
X003130Y006330D02*
X003130Y005030D01*
X003128Y005004D01*
X003123Y004978D01*
X003115Y004953D01*
X003103Y004930D01*
X003089Y004908D01*
X003071Y004889D01*
X003052Y004871D01*
X003030Y004857D01*
X003007Y004845D01*
X002982Y004837D01*
X002956Y004832D01*
X002930Y004830D01*
X002430Y004830D01*
X002404Y004832D01*
X002378Y004837D01*
X002353Y004845D01*
X002330Y004857D01*
X002308Y004871D01*
X002289Y004889D01*
X002271Y004908D01*
X002257Y004930D01*
X002245Y004953D01*
X002237Y004978D01*
X002232Y005004D01*
X002230Y005030D01*
X002230Y006330D01*
X002232Y006356D01*
X002237Y006382D01*
X002245Y006407D01*
X002257Y006430D01*
X002271Y006452D01*
X002289Y006471D01*
X002308Y006489D01*
X002330Y006503D01*
X002353Y006515D01*
X002378Y006523D01*
X002404Y006528D01*
X002430Y006530D01*
X002930Y006530D01*
X002956Y006528D01*
X002982Y006523D01*
X003007Y006515D01*
X003030Y006503D01*
X003052Y006489D01*
X003071Y006471D01*
X003089Y006452D01*
X003103Y006430D01*
X003115Y006407D01*
X003123Y006382D01*
X003128Y006356D01*
X003130Y006330D01*
X002680Y006280D02*
X002680Y005810D01*
X002680Y005560D02*
X002680Y005080D01*
D12*
X003295Y005350D02*
X003585Y005350D01*
X003585Y005253D02*
X003585Y005447D01*
X003537Y005548D02*
X003343Y005741D01*
X003537Y005741D01*
X003585Y005693D01*
X003585Y005596D01*
X003537Y005548D01*
X003343Y005548D01*
X003295Y005596D01*
X003295Y005693D01*
X003343Y005741D01*
X003440Y005842D02*
X003440Y006036D01*
X003585Y005987D02*
X003295Y005987D01*
X003440Y005842D01*
X003295Y005350D02*
X003392Y005253D01*
X002065Y005449D02*
X002065Y005545D01*
X002017Y005594D01*
X002065Y005695D02*
X002065Y005888D01*
X002065Y005792D02*
X001775Y005792D01*
X001872Y005695D01*
X001823Y005594D02*
X001775Y005545D01*
X001775Y005449D01*
X001823Y005400D01*
X002017Y005400D01*
X002065Y005449D01*
X015775Y005449D02*
X015823Y005400D01*
X016017Y005400D01*
X016065Y005449D01*
X016065Y005545D01*
X016017Y005594D01*
X016065Y005695D02*
X015872Y005888D01*
X015823Y005888D01*
X015775Y005840D01*
X015775Y005743D01*
X015823Y005695D01*
X015823Y005594D02*
X015775Y005545D01*
X015775Y005449D01*
X016065Y005695D02*
X016065Y005888D01*
X017295Y005987D02*
X017440Y005842D01*
X017440Y006036D01*
X017585Y005987D02*
X017295Y005987D01*
X017343Y005741D02*
X017537Y005548D01*
X017585Y005596D01*
X017585Y005693D01*
X017537Y005741D01*
X017343Y005741D01*
X017295Y005693D01*
X017295Y005596D01*
X017343Y005548D01*
X017537Y005548D01*
X017585Y005447D02*
X017585Y005253D01*
X017585Y005350D02*
X017295Y005350D01*
X017392Y005253D01*
X029275Y005449D02*
X029323Y005400D01*
X029517Y005400D01*
X029565Y005449D01*
X029565Y005545D01*
X029517Y005594D01*
X029517Y005695D02*
X029565Y005743D01*
X029565Y005840D01*
X029517Y005888D01*
X029468Y005888D01*
X029420Y005840D01*
X029420Y005792D01*
X029420Y005840D02*
X029372Y005888D01*
X029323Y005888D01*
X029275Y005840D01*
X029275Y005743D01*
X029323Y005695D01*
X029323Y005594D02*
X029275Y005545D01*
X029275Y005449D01*
X030795Y005350D02*
X030892Y005253D01*
X030795Y005350D02*
X031085Y005350D01*
X031085Y005253D02*
X031085Y005447D01*
X031037Y005548D02*
X030843Y005741D01*
X031037Y005741D01*
X031085Y005693D01*
X031085Y005596D01*
X031037Y005548D01*
X030843Y005548D01*
X030795Y005596D01*
X030795Y005693D01*
X030843Y005741D01*
X030940Y005842D02*
X030940Y006036D01*
X031085Y005987D02*
X030795Y005987D01*
X030940Y005842D01*
D13*
X030180Y006705D03*
X030180Y004655D03*
X016680Y004655D03*
X016680Y006705D03*
X002680Y006705D03*
X002680Y004655D03*
D14*
X009250Y004700D02*
X009250Y004880D01*
X009310Y004940D01*
X009430Y004940D01*
X009490Y004880D01*
X009490Y004700D01*
X009610Y004700D02*
X009250Y004700D01*
X009490Y004820D02*
X009610Y004940D01*
X009610Y005068D02*
X009610Y005309D01*
X009610Y005188D02*
X009250Y005188D01*
X009370Y005068D01*
X010000Y005268D02*
X010360Y005268D01*
X010360Y005148D02*
X010360Y005388D01*
X010300Y005516D02*
X010060Y005516D01*
X010000Y005576D01*
X010000Y005696D01*
X010060Y005756D01*
X010300Y005516D01*
X010360Y005576D01*
X010360Y005696D01*
X010300Y005756D01*
X010060Y005756D01*
X010000Y005884D02*
X010360Y005884D01*
X010240Y005884D02*
X010000Y006124D01*
X010180Y005944D02*
X010360Y006124D01*
X010810Y005677D02*
X010870Y005677D01*
X010930Y005617D01*
X010930Y005437D01*
X011110Y005437D02*
X011110Y005617D01*
X011050Y005677D01*
X010990Y005677D01*
X010930Y005617D01*
X010810Y005677D02*
X010750Y005617D01*
X010750Y005437D01*
X011110Y005437D01*
X011110Y005309D02*
X011110Y005068D01*
X011110Y005188D02*
X010750Y005188D01*
X010870Y005068D01*
X010810Y004940D02*
X010930Y004940D01*
X010990Y004880D01*
X010990Y004700D01*
X011110Y004700D02*
X010750Y004700D01*
X010750Y004880D01*
X010810Y004940D01*
X010990Y004820D02*
X011110Y004940D01*
X011560Y005176D02*
X011680Y005055D01*
X011680Y005236D01*
X011740Y005296D01*
X011800Y005296D01*
X011860Y005236D01*
X011860Y005116D01*
X011800Y005055D01*
X011680Y005055D01*
X011560Y005176D02*
X011500Y005296D01*
X011800Y005424D02*
X011800Y005484D01*
X011860Y005484D01*
X011860Y005424D01*
X011800Y005424D01*
X011800Y005608D02*
X011740Y005608D01*
X011680Y005668D01*
X011680Y005788D01*
X011740Y005848D01*
X011800Y005848D01*
X011860Y005788D01*
X011860Y005668D01*
X011800Y005608D01*
X011680Y005668D02*
X011620Y005608D01*
X011560Y005608D01*
X011500Y005668D01*
X011500Y005788D01*
X011560Y005848D01*
X011620Y005848D01*
X011680Y005788D01*
X011740Y005976D02*
X011500Y006216D01*
X011680Y006036D02*
X011860Y006216D01*
X011860Y005976D02*
X011500Y005976D01*
X010120Y005148D02*
X010000Y005268D01*
X009610Y005437D02*
X009370Y005437D01*
X009250Y005557D01*
X009370Y005677D01*
X009610Y005677D01*
X009430Y005677D02*
X009430Y005437D01*
X014250Y005557D02*
X014370Y005437D01*
X014610Y005437D01*
X014610Y005309D02*
X014610Y005068D01*
X014370Y005309D01*
X014310Y005309D01*
X014250Y005248D01*
X014250Y005128D01*
X014310Y005068D01*
X014310Y004940D02*
X014430Y004940D01*
X014490Y004880D01*
X014490Y004700D01*
X014610Y004700D02*
X014250Y004700D01*
X014250Y004880D01*
X014310Y004940D01*
X014490Y004820D02*
X014610Y004940D01*
X015000Y005268D02*
X015120Y005148D01*
X015000Y005268D02*
X015360Y005268D01*
X015360Y005148D02*
X015360Y005388D01*
X015300Y005516D02*
X015060Y005756D01*
X015300Y005756D01*
X015360Y005696D01*
X015360Y005576D01*
X015300Y005516D01*
X015060Y005516D01*
X015000Y005576D01*
X015000Y005696D01*
X015060Y005756D01*
X015000Y005884D02*
X015360Y005884D01*
X015240Y005884D02*
X015000Y006124D01*
X015180Y005944D02*
X015360Y006124D01*
X014610Y005677D02*
X014370Y005677D01*
X014250Y005557D01*
X014430Y005437D02*
X014430Y005677D01*
X023250Y005617D02*
X023250Y005437D01*
X023610Y005437D01*
X023610Y005617D01*
X023550Y005677D01*
X023490Y005677D01*
X023430Y005617D01*
X023430Y005437D01*
X023370Y005309D02*
X023310Y005309D01*
X023250Y005248D01*
X023250Y005128D01*
X023310Y005068D01*
X023310Y004940D02*
X023430Y004940D01*
X023490Y004880D01*
X023490Y004700D01*
X023610Y004700D02*
X023250Y004700D01*
X023250Y004880D01*
X023310Y004940D01*
X023490Y004820D02*
X023610Y004940D01*
X023610Y005068D02*
X023370Y005309D01*
X023610Y005309D02*
X023610Y005068D01*
X024000Y005296D02*
X024060Y005176D01*
X024180Y005055D01*
X024180Y005236D01*
X024240Y005296D01*
X024300Y005296D01*
X024360Y005236D01*
X024360Y005116D01*
X024300Y005055D01*
X024180Y005055D01*
X024300Y005424D02*
X024300Y005484D01*
X024360Y005484D01*
X024360Y005424D01*
X024300Y005424D01*
X024300Y005608D02*
X024240Y005608D01*
X024180Y005668D01*
X024180Y005788D01*
X024240Y005848D01*
X024300Y005848D01*
X024360Y005788D01*
X024360Y005668D01*
X024300Y005608D01*
X024180Y005668D02*
X024120Y005608D01*
X024060Y005608D01*
X024000Y005668D01*
X024000Y005788D01*
X024060Y005848D01*
X024120Y005848D01*
X024180Y005788D01*
X024240Y005976D02*
X024000Y006216D01*
X024180Y006036D02*
X024360Y006216D01*
X024360Y005976D02*
X024000Y005976D01*
X023430Y005617D02*
X023370Y005677D01*
X023310Y005677D01*
X023250Y005617D01*
X026250Y005557D02*
X026370Y005437D01*
X026610Y005437D01*
X026550Y005309D02*
X026610Y005248D01*
X026610Y005128D01*
X026550Y005068D01*
X026610Y004940D02*
X026490Y004820D01*
X026490Y004880D02*
X026490Y004700D01*
X026610Y004700D02*
X026250Y004700D01*
X026250Y004880D01*
X026310Y004940D01*
X026430Y004940D01*
X026490Y004880D01*
X026310Y005068D02*
X026250Y005128D01*
X026250Y005248D01*
X026310Y005309D01*
X026370Y005309D01*
X026430Y005248D01*
X026490Y005309D01*
X026550Y005309D01*
X026430Y005248D02*
X026430Y005188D01*
X027000Y005268D02*
X027360Y005268D01*
X027360Y005148D02*
X027360Y005388D01*
X027300Y005516D02*
X027060Y005756D01*
X027300Y005756D01*
X027360Y005696D01*
X027360Y005576D01*
X027300Y005516D01*
X027060Y005516D01*
X027000Y005576D01*
X027000Y005696D01*
X027060Y005756D01*
X027000Y005884D02*
X027360Y005884D01*
X027240Y005884D02*
X027000Y006124D01*
X027180Y005944D02*
X027360Y006124D01*
X027810Y005677D02*
X027870Y005677D01*
X027930Y005617D01*
X027930Y005437D01*
X027990Y005309D02*
X028050Y005309D01*
X028110Y005248D01*
X028110Y005128D01*
X028050Y005068D01*
X028110Y004940D02*
X027990Y004820D01*
X027990Y004880D02*
X027990Y004700D01*
X028110Y004700D02*
X027750Y004700D01*
X027750Y004880D01*
X027810Y004940D01*
X027930Y004940D01*
X027990Y004880D01*
X027810Y005068D02*
X027750Y005128D01*
X027750Y005248D01*
X027810Y005309D01*
X027870Y005309D01*
X027930Y005248D01*
X027990Y005309D01*
X027930Y005248D02*
X027930Y005188D01*
X028500Y005296D02*
X028560Y005176D01*
X028680Y005055D01*
X028680Y005236D01*
X028740Y005296D01*
X028800Y005296D01*
X028860Y005236D01*
X028860Y005116D01*
X028800Y005055D01*
X028680Y005055D01*
X028800Y005424D02*
X028800Y005484D01*
X028860Y005484D01*
X028860Y005424D01*
X028800Y005424D01*
X028800Y005608D02*
X028740Y005608D01*
X028680Y005668D01*
X028680Y005788D01*
X028740Y005848D01*
X028800Y005848D01*
X028860Y005788D01*
X028860Y005668D01*
X028800Y005608D01*
X028680Y005668D02*
X028620Y005608D01*
X028560Y005608D01*
X028500Y005668D01*
X028500Y005788D01*
X028560Y005848D01*
X028620Y005848D01*
X028680Y005788D01*
X028740Y005976D02*
X028500Y006216D01*
X028680Y006036D02*
X028860Y006216D01*
X028860Y005976D02*
X028500Y005976D01*
X028110Y005617D02*
X028110Y005437D01*
X027750Y005437D01*
X027750Y005617D01*
X027810Y005677D01*
X027930Y005617D02*
X027990Y005677D01*
X028050Y005677D01*
X028110Y005617D01*
X027120Y005148D02*
X027000Y005268D01*
X026430Y005437D02*
X026430Y005677D01*
X026370Y005677D02*
X026610Y005677D01*
X026370Y005677D02*
X026250Y005557D01*
D15*
X003680Y001680D02*
X003680Y000680D01*
X008680Y000680D01*
X008680Y001680D01*
X007180Y002180D02*
X005180Y002180D01*
X005180Y004180D01*
X007180Y004180D01*
X007180Y002180D01*
X008680Y002680D02*
X008680Y003680D01*
X005680Y003180D02*
X005682Y003224D01*
X005688Y003268D01*
X005698Y003311D01*
X005711Y003353D01*
X005728Y003394D01*
X005749Y003433D01*
X005773Y003470D01*
X005800Y003505D01*
X005830Y003537D01*
X005863Y003567D01*
X005899Y003593D01*
X005936Y003617D01*
X005976Y003636D01*
X006017Y003653D01*
X006060Y003665D01*
X006103Y003674D01*
X006147Y003679D01*
X006191Y003680D01*
X006235Y003677D01*
X006279Y003670D01*
X006322Y003659D01*
X006364Y003645D01*
X006404Y003627D01*
X006443Y003605D01*
X006479Y003581D01*
X006513Y003553D01*
X006545Y003522D01*
X006574Y003488D01*
X006600Y003452D01*
X006622Y003414D01*
X006641Y003374D01*
X006656Y003332D01*
X006668Y003290D01*
X006676Y003246D01*
X006680Y003202D01*
X006680Y003158D01*
X006676Y003114D01*
X006668Y003070D01*
X006656Y003028D01*
X006641Y002986D01*
X006622Y002946D01*
X006600Y002908D01*
X006574Y002872D01*
X006545Y002838D01*
X006513Y002807D01*
X006479Y002779D01*
X006443Y002755D01*
X006404Y002733D01*
X006364Y002715D01*
X006322Y002701D01*
X006279Y002690D01*
X006235Y002683D01*
X006191Y002680D01*
X006147Y002681D01*
X006103Y002686D01*
X006060Y002695D01*
X006017Y002707D01*
X005976Y002724D01*
X005936Y002743D01*
X005899Y002767D01*
X005863Y002793D01*
X005830Y002823D01*
X005800Y002855D01*
X005773Y002890D01*
X005749Y002927D01*
X005728Y002966D01*
X005711Y003007D01*
X005698Y003049D01*
X005688Y003092D01*
X005682Y003136D01*
X005680Y003180D01*
X004599Y003180D02*
X004601Y003259D01*
X004607Y003339D01*
X004617Y003418D01*
X004631Y003496D01*
X004649Y003573D01*
X004670Y003650D01*
X004696Y003725D01*
X004725Y003799D01*
X004758Y003871D01*
X004795Y003942D01*
X004835Y004010D01*
X004878Y004077D01*
X004925Y004141D01*
X004975Y004203D01*
X005028Y004262D01*
X005083Y004319D01*
X005142Y004372D01*
X005203Y004423D01*
X005267Y004471D01*
X005333Y004515D01*
X005401Y004556D01*
X005471Y004593D01*
X005543Y004627D01*
X005617Y004657D01*
X005691Y004684D01*
X005768Y004706D01*
X005845Y004725D01*
X005923Y004740D01*
X006002Y004751D01*
X006081Y004758D01*
X006160Y004761D01*
X006240Y004760D01*
X006319Y004755D01*
X006398Y004746D01*
X006476Y004733D01*
X006554Y004716D01*
X006631Y004695D01*
X006706Y004671D01*
X006780Y004643D01*
X006853Y004611D01*
X006924Y004575D01*
X006993Y004536D01*
X007060Y004493D01*
X007125Y004447D01*
X007188Y004398D01*
X007248Y004346D01*
X007305Y004291D01*
X007359Y004233D01*
X007411Y004172D01*
X007459Y004109D01*
X007504Y004044D01*
X007546Y003976D01*
X007584Y003907D01*
X007619Y003835D01*
X007650Y003762D01*
X007677Y003687D01*
X007701Y003612D01*
X007721Y003535D01*
X007737Y003457D01*
X007749Y003378D01*
X007757Y003299D01*
X007761Y003220D01*
X007761Y003140D01*
X007757Y003061D01*
X007749Y002982D01*
X007737Y002903D01*
X007721Y002825D01*
X007701Y002748D01*
X007677Y002673D01*
X007650Y002598D01*
X007619Y002525D01*
X007584Y002453D01*
X007546Y002384D01*
X007504Y002316D01*
X007459Y002251D01*
X007411Y002188D01*
X007359Y002127D01*
X007305Y002069D01*
X007248Y002014D01*
X007188Y001962D01*
X007125Y001913D01*
X007060Y001867D01*
X006993Y001824D01*
X006924Y001785D01*
X006853Y001749D01*
X006780Y001717D01*
X006706Y001689D01*
X006631Y001665D01*
X006554Y001644D01*
X006476Y001627D01*
X006398Y001614D01*
X006319Y001605D01*
X006240Y001600D01*
X006160Y001599D01*
X006081Y001602D01*
X006002Y001609D01*
X005923Y001620D01*
X005845Y001635D01*
X005768Y001654D01*
X005691Y001676D01*
X005617Y001703D01*
X005543Y001733D01*
X005471Y001767D01*
X005401Y001804D01*
X005333Y001845D01*
X005267Y001889D01*
X005203Y001937D01*
X005142Y001988D01*
X005083Y002041D01*
X005028Y002098D01*
X004975Y002157D01*
X004925Y002219D01*
X004878Y002283D01*
X004835Y002350D01*
X004795Y002418D01*
X004758Y002489D01*
X004725Y002561D01*
X004696Y002635D01*
X004670Y002710D01*
X004649Y002787D01*
X004631Y002864D01*
X004617Y002942D01*
X004607Y003021D01*
X004601Y003101D01*
X004599Y003180D01*
X003680Y002680D02*
X003680Y003680D01*
X003680Y004680D02*
X003680Y005680D01*
X008680Y005680D01*
X008680Y004680D01*
X006439Y005955D02*
X006205Y005955D01*
X006322Y005955D02*
X006322Y006305D01*
X006205Y006189D01*
X006070Y006247D02*
X006012Y006305D01*
X005895Y006305D01*
X005837Y006247D01*
X005837Y006189D01*
X005895Y006130D01*
X006012Y006130D01*
X006070Y006072D01*
X006070Y006013D01*
X006012Y005955D01*
X005895Y005955D01*
X005837Y006013D01*
X012970Y002570D02*
X013050Y002440D01*
X013270Y002440D01*
X013370Y002570D01*
X012970Y002570D01*
X012978Y002557D02*
X013360Y002557D01*
X013322Y002508D02*
X013008Y002508D01*
X013038Y002460D02*
X013285Y002460D01*
X017680Y002680D02*
X017680Y003680D01*
X019180Y004180D02*
X021180Y004180D01*
X021180Y002180D01*
X019180Y002180D01*
X019180Y004180D01*
X017680Y004680D02*
X017680Y005680D01*
X022680Y005680D01*
X022680Y004680D01*
X022680Y003680D02*
X022680Y002680D01*
X019680Y003180D02*
X019682Y003224D01*
X019688Y003268D01*
X019698Y003311D01*
X019711Y003353D01*
X019728Y003394D01*
X019749Y003433D01*
X019773Y003470D01*
X019800Y003505D01*
X019830Y003537D01*
X019863Y003567D01*
X019899Y003593D01*
X019936Y003617D01*
X019976Y003636D01*
X020017Y003653D01*
X020060Y003665D01*
X020103Y003674D01*
X020147Y003679D01*
X020191Y003680D01*
X020235Y003677D01*
X020279Y003670D01*
X020322Y003659D01*
X020364Y003645D01*
X020404Y003627D01*
X020443Y003605D01*
X020479Y003581D01*
X020513Y003553D01*
X020545Y003522D01*
X020574Y003488D01*
X020600Y003452D01*
X020622Y003414D01*
X020641Y003374D01*
X020656Y003332D01*
X020668Y003290D01*
X020676Y003246D01*
X020680Y003202D01*
X020680Y003158D01*
X020676Y003114D01*
X020668Y003070D01*
X020656Y003028D01*
X020641Y002986D01*
X020622Y002946D01*
X020600Y002908D01*
X020574Y002872D01*
X020545Y002838D01*
X020513Y002807D01*
X020479Y002779D01*
X020443Y002755D01*
X020404Y002733D01*
X020364Y002715D01*
X020322Y002701D01*
X020279Y002690D01*
X020235Y002683D01*
X020191Y002680D01*
X020147Y002681D01*
X020103Y002686D01*
X020060Y002695D01*
X020017Y002707D01*
X019976Y002724D01*
X019936Y002743D01*
X019899Y002767D01*
X019863Y002793D01*
X019830Y002823D01*
X019800Y002855D01*
X019773Y002890D01*
X019749Y002927D01*
X019728Y002966D01*
X019711Y003007D01*
X019698Y003049D01*
X019688Y003092D01*
X019682Y003136D01*
X019680Y003180D01*
X018599Y003180D02*
X018601Y003259D01*
X018607Y003339D01*
X018617Y003418D01*
X018631Y003496D01*
X018649Y003573D01*
X018670Y003650D01*
X018696Y003725D01*
X018725Y003799D01*
X018758Y003871D01*
X018795Y003942D01*
X018835Y004010D01*
X018878Y004077D01*
X018925Y004141D01*
X018975Y004203D01*
X019028Y004262D01*
X019083Y004319D01*
X019142Y004372D01*
X019203Y004423D01*
X019267Y004471D01*
X019333Y004515D01*
X019401Y004556D01*
X019471Y004593D01*
X019543Y004627D01*
X019617Y004657D01*
X019691Y004684D01*
X019768Y004706D01*
X019845Y004725D01*
X019923Y004740D01*
X020002Y004751D01*
X020081Y004758D01*
X020160Y004761D01*
X020240Y004760D01*
X020319Y004755D01*
X020398Y004746D01*
X020476Y004733D01*
X020554Y004716D01*
X020631Y004695D01*
X020706Y004671D01*
X020780Y004643D01*
X020853Y004611D01*
X020924Y004575D01*
X020993Y004536D01*
X021060Y004493D01*
X021125Y004447D01*
X021188Y004398D01*
X021248Y004346D01*
X021305Y004291D01*
X021359Y004233D01*
X021411Y004172D01*
X021459Y004109D01*
X021504Y004044D01*
X021546Y003976D01*
X021584Y003907D01*
X021619Y003835D01*
X021650Y003762D01*
X021677Y003687D01*
X021701Y003612D01*
X021721Y003535D01*
X021737Y003457D01*
X021749Y003378D01*
X021757Y003299D01*
X021761Y003220D01*
X021761Y003140D01*
X021757Y003061D01*
X021749Y002982D01*
X021737Y002903D01*
X021721Y002825D01*
X021701Y002748D01*
X021677Y002673D01*
X021650Y002598D01*
X021619Y002525D01*
X021584Y002453D01*
X021546Y002384D01*
X021504Y002316D01*
X021459Y002251D01*
X021411Y002188D01*
X021359Y002127D01*
X021305Y002069D01*
X021248Y002014D01*
X021188Y001962D01*
X021125Y001913D01*
X021060Y001867D01*
X020993Y001824D01*
X020924Y001785D01*
X020853Y001749D01*
X020780Y001717D01*
X020706Y001689D01*
X020631Y001665D01*
X020554Y001644D01*
X020476Y001627D01*
X020398Y001614D01*
X020319Y001605D01*
X020240Y001600D01*
X020160Y001599D01*
X020081Y001602D01*
X020002Y001609D01*
X019923Y001620D01*
X019845Y001635D01*
X019768Y001654D01*
X019691Y001676D01*
X019617Y001703D01*
X019543Y001733D01*
X019471Y001767D01*
X019401Y001804D01*
X019333Y001845D01*
X019267Y001889D01*
X019203Y001937D01*
X019142Y001988D01*
X019083Y002041D01*
X019028Y002098D01*
X018975Y002157D01*
X018925Y002219D01*
X018878Y002283D01*
X018835Y002350D01*
X018795Y002418D01*
X018758Y002489D01*
X018725Y002561D01*
X018696Y002635D01*
X018670Y002710D01*
X018649Y002787D01*
X018631Y002864D01*
X018617Y002942D01*
X018607Y003021D01*
X018601Y003101D01*
X018599Y003180D01*
X017680Y001680D02*
X017680Y000680D01*
X022680Y000680D01*
X022680Y001680D01*
X031680Y001680D02*
X031680Y000680D01*
X036680Y000680D01*
X036680Y001680D01*
X035180Y002180D02*
X033180Y002180D01*
X033180Y004180D01*
X035180Y004180D01*
X035180Y002180D01*
X036680Y002680D02*
X036680Y003680D01*
X033680Y003180D02*
X033682Y003224D01*
X033688Y003268D01*
X033698Y003311D01*
X033711Y003353D01*
X033728Y003394D01*
X033749Y003433D01*
X033773Y003470D01*
X033800Y003505D01*
X033830Y003537D01*
X033863Y003567D01*
X033899Y003593D01*
X033936Y003617D01*
X033976Y003636D01*
X034017Y003653D01*
X034060Y003665D01*
X034103Y003674D01*
X034147Y003679D01*
X034191Y003680D01*
X034235Y003677D01*
X034279Y003670D01*
X034322Y003659D01*
X034364Y003645D01*
X034404Y003627D01*
X034443Y003605D01*
X034479Y003581D01*
X034513Y003553D01*
X034545Y003522D01*
X034574Y003488D01*
X034600Y003452D01*
X034622Y003414D01*
X034641Y003374D01*
X034656Y003332D01*
X034668Y003290D01*
X034676Y003246D01*
X034680Y003202D01*
X034680Y003158D01*
X034676Y003114D01*
X034668Y003070D01*
X034656Y003028D01*
X034641Y002986D01*
X034622Y002946D01*
X034600Y002908D01*
X034574Y002872D01*
X034545Y002838D01*
X034513Y002807D01*
X034479Y002779D01*
X034443Y002755D01*
X034404Y002733D01*
X034364Y002715D01*
X034322Y002701D01*
X034279Y002690D01*
X034235Y002683D01*
X034191Y002680D01*
X034147Y002681D01*
X034103Y002686D01*
X034060Y002695D01*
X034017Y002707D01*
X033976Y002724D01*
X033936Y002743D01*
X033899Y002767D01*
X033863Y002793D01*
X033830Y002823D01*
X033800Y002855D01*
X033773Y002890D01*
X033749Y002927D01*
X033728Y002966D01*
X033711Y003007D01*
X033698Y003049D01*
X033688Y003092D01*
X033682Y003136D01*
X033680Y003180D01*
X032599Y003180D02*
X032601Y003259D01*
X032607Y003339D01*
X032617Y003418D01*
X032631Y003496D01*
X032649Y003573D01*
X032670Y003650D01*
X032696Y003725D01*
X032725Y003799D01*
X032758Y003871D01*
X032795Y003942D01*
X032835Y004010D01*
X032878Y004077D01*
X032925Y004141D01*
X032975Y004203D01*
X033028Y004262D01*
X033083Y004319D01*
X033142Y004372D01*
X033203Y004423D01*
X033267Y004471D01*
X033333Y004515D01*
X033401Y004556D01*
X033471Y004593D01*
X033543Y004627D01*
X033617Y004657D01*
X033691Y004684D01*
X033768Y004706D01*
X033845Y004725D01*
X033923Y004740D01*
X034002Y004751D01*
X034081Y004758D01*
X034160Y004761D01*
X034240Y004760D01*
X034319Y004755D01*
X034398Y004746D01*
X034476Y004733D01*
X034554Y004716D01*
X034631Y004695D01*
X034706Y004671D01*
X034780Y004643D01*
X034853Y004611D01*
X034924Y004575D01*
X034993Y004536D01*
X035060Y004493D01*
X035125Y004447D01*
X035188Y004398D01*
X035248Y004346D01*
X035305Y004291D01*
X035359Y004233D01*
X035411Y004172D01*
X035459Y004109D01*
X035504Y004044D01*
X035546Y003976D01*
X035584Y003907D01*
X035619Y003835D01*
X035650Y003762D01*
X035677Y003687D01*
X035701Y003612D01*
X035721Y003535D01*
X035737Y003457D01*
X035749Y003378D01*
X035757Y003299D01*
X035761Y003220D01*
X035761Y003140D01*
X035757Y003061D01*
X035749Y002982D01*
X035737Y002903D01*
X035721Y002825D01*
X035701Y002748D01*
X035677Y002673D01*
X035650Y002598D01*
X035619Y002525D01*
X035584Y002453D01*
X035546Y002384D01*
X035504Y002316D01*
X035459Y002251D01*
X035411Y002188D01*
X035359Y002127D01*
X035305Y002069D01*
X035248Y002014D01*
X035188Y001962D01*
X035125Y001913D01*
X035060Y001867D01*
X034993Y001824D01*
X034924Y001785D01*
X034853Y001749D01*
X034780Y001717D01*
X034706Y001689D01*
X034631Y001665D01*
X034554Y001644D01*
X034476Y001627D01*
X034398Y001614D01*
X034319Y001605D01*
X034240Y001600D01*
X034160Y001599D01*
X034081Y001602D01*
X034002Y001609D01*
X033923Y001620D01*
X033845Y001635D01*
X033768Y001654D01*
X033691Y001676D01*
X033617Y001703D01*
X033543Y001733D01*
X033471Y001767D01*
X033401Y001804D01*
X033333Y001845D01*
X033267Y001889D01*
X033203Y001937D01*
X033142Y001988D01*
X033083Y002041D01*
X033028Y002098D01*
X032975Y002157D01*
X032925Y002219D01*
X032878Y002283D01*
X032835Y002350D01*
X032795Y002418D01*
X032758Y002489D01*
X032725Y002561D01*
X032696Y002635D01*
X032670Y002710D01*
X032649Y002787D01*
X032631Y002864D01*
X032617Y002942D01*
X032607Y003021D01*
X032601Y003101D01*
X032599Y003180D01*
X031680Y002680D02*
X031680Y003680D01*
X031680Y004680D02*
X031680Y005680D01*
X036680Y005680D01*
X036680Y004680D01*
X034439Y006013D02*
X034380Y005955D01*
X034263Y005955D01*
X034205Y006013D01*
X034070Y006013D02*
X034012Y005955D01*
X033895Y005955D01*
X033837Y006013D01*
X033895Y006130D02*
X034012Y006130D01*
X034070Y006072D01*
X034070Y006013D01*
X033895Y006130D02*
X033837Y006189D01*
X033837Y006247D01*
X033895Y006305D01*
X034012Y006305D01*
X034070Y006247D01*
X034205Y006247D02*
X034263Y006305D01*
X034380Y006305D01*
X034439Y006247D01*
X034439Y006189D01*
X034380Y006130D01*
X034439Y006072D01*
X034439Y006013D01*
X034380Y006130D02*
X034322Y006130D01*
X020439Y006189D02*
X020205Y005955D01*
X020439Y005955D01*
X020070Y006013D02*
X020070Y006072D01*
X020012Y006130D01*
X019895Y006130D01*
X019837Y006189D01*
X019837Y006247D01*
X019895Y006305D01*
X020012Y006305D01*
X020070Y006247D01*
X020205Y006247D02*
X020263Y006305D01*
X020380Y006305D01*
X020439Y006247D01*
X020439Y006189D01*
X020070Y006013D02*
X020012Y005955D01*
X019895Y005955D01*
X019837Y006013D01*
D16*
X013210Y002980D02*
X013221Y003005D01*
X013235Y003028D01*
X013253Y003049D01*
X013273Y003067D01*
X013295Y003083D01*
X013319Y003095D01*
X013345Y003103D01*
X013372Y003108D01*
X013399Y003109D01*
X013426Y003106D01*
X013452Y003100D01*
X013478Y003090D01*
X013501Y003076D01*
X013523Y003059D01*
X013541Y003040D01*
X013557Y003018D01*
X013570Y002994D01*
X013579Y002969D01*
X013585Y002942D01*
X013587Y002915D01*
X013585Y002888D01*
X013579Y002861D01*
X013570Y002836D01*
X013557Y002812D01*
X013541Y002790D01*
X013523Y002771D01*
X013501Y002754D01*
X013478Y002740D01*
X013452Y002730D01*
X013426Y002724D01*
X013399Y002721D01*
X013372Y002722D01*
X013345Y002727D01*
X013319Y002735D01*
X013295Y002747D01*
X013273Y002763D01*
X013253Y002781D01*
X013235Y002802D01*
X013221Y002825D01*
X013210Y002850D01*
X013205Y002893D02*
X013207Y002916D01*
X013213Y002938D01*
X013222Y002960D01*
X013235Y002979D01*
X013250Y002996D01*
X013268Y003010D01*
X013289Y003021D01*
X013311Y003029D01*
X013333Y003033D01*
X013357Y003033D01*
X013379Y003029D01*
X013401Y003021D01*
X013422Y003010D01*
X013440Y002996D01*
X013455Y002979D01*
X013468Y002960D01*
X013477Y002938D01*
X013483Y002916D01*
X013485Y002893D01*
X013483Y002870D01*
X013477Y002848D01*
X013468Y002826D01*
X013455Y002807D01*
X013440Y002790D01*
X013422Y002776D01*
X013401Y002765D01*
X013379Y002757D01*
X013357Y002753D01*
X013333Y002753D01*
X013311Y002757D01*
X013289Y002765D01*
X013268Y002776D01*
X013250Y002790D01*
X013235Y002807D01*
X013222Y002826D01*
X013213Y002848D01*
X013207Y002870D01*
X013205Y002893D01*
X012915Y002893D02*
X012917Y002916D01*
X012923Y002938D01*
X012932Y002960D01*
X012945Y002979D01*
X012960Y002996D01*
X012978Y003010D01*
X012999Y003021D01*
X013021Y003029D01*
X013043Y003033D01*
X013067Y003033D01*
X013089Y003029D01*
X013111Y003021D01*
X013132Y003010D01*
X013150Y002996D01*
X013165Y002979D01*
X013178Y002960D01*
X013187Y002938D01*
X013193Y002916D01*
X013195Y002893D01*
X013193Y002870D01*
X013187Y002848D01*
X013178Y002826D01*
X013165Y002807D01*
X013150Y002790D01*
X013132Y002776D01*
X013111Y002765D01*
X013089Y002757D01*
X013067Y002753D01*
X013043Y002753D01*
X013021Y002757D01*
X012999Y002765D01*
X012978Y002776D01*
X012960Y002790D01*
X012945Y002807D01*
X012932Y002826D01*
X012923Y002848D01*
X012917Y002870D01*
X012915Y002893D01*
X013200Y002850D02*
X013189Y002825D01*
X013175Y002802D01*
X013157Y002781D01*
X013137Y002763D01*
X013115Y002747D01*
X013091Y002735D01*
X013065Y002727D01*
X013038Y002722D01*
X013011Y002721D01*
X012984Y002724D01*
X012958Y002730D01*
X012932Y002740D01*
X012909Y002754D01*
X012887Y002771D01*
X012869Y002790D01*
X012853Y002812D01*
X012840Y002836D01*
X012831Y002861D01*
X012825Y002888D01*
X012823Y002915D01*
X012825Y002942D01*
X012831Y002969D01*
X012840Y002994D01*
X012853Y003018D01*
X012869Y003040D01*
X012887Y003059D01*
X012909Y003076D01*
X012932Y003090D01*
X012958Y003100D01*
X012984Y003106D01*
X013011Y003109D01*
X013038Y003108D01*
X013065Y003103D01*
X013091Y003095D01*
X013115Y003083D01*
X013137Y003067D01*
X013157Y003049D01*
X013175Y003028D01*
X013189Y003005D01*
X013200Y002980D01*
D17*
X012639Y002938D02*
X012411Y002938D01*
X012403Y002967D02*
X012427Y002886D01*
X012460Y002808D01*
X012501Y002735D01*
X012325Y002510D01*
X012550Y002285D01*
X012639Y002356D01*
X012639Y003130D01*
X012642Y003222D01*
X012660Y003312D01*
X012693Y003398D01*
X012739Y003477D01*
X012798Y003548D01*
X012867Y003608D01*
X012945Y003656D01*
X013030Y003690D01*
X013120Y003710D01*
X013083Y003737D01*
X013054Y003772D01*
X013033Y003812D01*
X013022Y003856D01*
X013021Y003901D01*
X013030Y003946D01*
X013049Y003987D01*
X013077Y004023D01*
X013112Y004052D01*
X013153Y004072D01*
X013197Y004082D01*
X013243Y004082D01*
X013287Y004072D01*
X013328Y004052D01*
X013363Y004023D01*
X013391Y003987D01*
X013410Y003946D01*
X013419Y003901D01*
X013418Y003856D01*
X013407Y003812D01*
X013386Y003772D01*
X013357Y003737D01*
X013320Y003710D01*
X013320Y003700D01*
X013408Y003680D01*
X013491Y003646D01*
X013568Y003599D01*
X013636Y003540D01*
X013693Y003471D01*
X013739Y003393D01*
X013770Y003308D01*
X013788Y003220D01*
X013791Y003130D01*
X013791Y002336D01*
X013870Y002285D01*
X014085Y002500D01*
X013919Y002725D01*
X013973Y002837D01*
X014007Y002957D01*
X014301Y003008D01*
X014301Y003322D01*
X014007Y003353D01*
X013972Y003468D01*
X013919Y003575D01*
X014095Y003820D01*
X013870Y004035D01*
X013635Y003869D01*
X013528Y003927D01*
X013413Y003967D01*
X013372Y004251D01*
X013058Y004251D01*
X013017Y003947D01*
X012907Y003912D01*
X012805Y003859D01*
X012540Y004035D01*
X012335Y003830D01*
X012511Y003585D01*
X012453Y003478D01*
X012413Y003363D01*
X012119Y003332D01*
X012668Y003332D01*
X012645Y003234D02*
X012119Y003234D01*
X012119Y003332D02*
X012119Y003008D01*
X012403Y002967D01*
X012447Y002840D02*
X012639Y002840D01*
X012639Y002741D02*
X012498Y002741D01*
X012429Y002643D02*
X012639Y002643D01*
X012639Y002544D02*
X012351Y002544D01*
X012390Y002446D02*
X012639Y002446D01*
X012628Y002347D02*
X012488Y002347D01*
X013791Y002347D02*
X013932Y002347D01*
X014030Y002446D02*
X013791Y002446D01*
X013791Y002544D02*
X014053Y002544D01*
X013980Y002643D02*
X013791Y002643D01*
X013791Y002741D02*
X013927Y002741D01*
X013973Y002840D02*
X013791Y002840D01*
X013791Y002938D02*
X014002Y002938D01*
X013791Y003037D02*
X014301Y003037D01*
X014301Y003135D02*
X013790Y003135D01*
X013785Y003234D02*
X014301Y003234D01*
X014209Y003332D02*
X013761Y003332D01*
X013717Y003431D02*
X013984Y003431D01*
X013942Y003529D02*
X013645Y003529D01*
X013522Y003628D02*
X013956Y003628D01*
X014027Y003726D02*
X013342Y003726D01*
X013410Y003825D02*
X014090Y003825D01*
X013987Y003923D02*
X013712Y003923D01*
X013851Y004022D02*
X013884Y004022D01*
X013536Y003923D02*
X013415Y003923D01*
X013405Y004022D02*
X013364Y004022D01*
X013391Y004120D02*
X013040Y004120D01*
X013027Y004022D02*
X013076Y004022D01*
X013025Y003923D02*
X012941Y003923D01*
X013030Y003825D02*
X012339Y003825D01*
X012410Y003726D02*
X013098Y003726D01*
X012899Y003628D02*
X012481Y003628D01*
X012480Y003529D02*
X012782Y003529D01*
X012712Y003431D02*
X012436Y003431D01*
X012640Y003135D02*
X012119Y003135D01*
X012119Y003037D02*
X012639Y003037D01*
X012708Y003923D02*
X012428Y003923D01*
X012527Y004022D02*
X012561Y004022D01*
X013053Y004219D02*
X013377Y004219D01*
M02*
