G75*
%MOIN*%
%OFA0B0*%
%FSLAX24Y24*%
%IPPOS*%
%LPD*%
%AMOC8*
5,1,8,0,0,1.08239X$1,22.5*
%
%ADD10C,0.0000*%
D10*
X001180Y000180D02*
X039180Y000180D01*
X039240Y000182D01*
X039301Y000187D01*
X039360Y000196D01*
X039419Y000209D01*
X039478Y000225D01*
X039535Y000245D01*
X039590Y000268D01*
X039645Y000295D01*
X039697Y000324D01*
X039748Y000357D01*
X039797Y000393D01*
X039843Y000431D01*
X039887Y000473D01*
X039929Y000517D01*
X039967Y000563D01*
X040003Y000612D01*
X040036Y000663D01*
X040065Y000715D01*
X040092Y000770D01*
X040115Y000825D01*
X040135Y000882D01*
X040151Y000941D01*
X040164Y001000D01*
X040173Y001059D01*
X040178Y001120D01*
X040180Y001180D01*
X040180Y011180D01*
X040178Y011240D01*
X040173Y011301D01*
X040164Y011360D01*
X040151Y011419D01*
X040135Y011478D01*
X040115Y011535D01*
X040092Y011590D01*
X040065Y011645D01*
X040036Y011697D01*
X040003Y011748D01*
X039967Y011797D01*
X039929Y011843D01*
X039887Y011887D01*
X039843Y011929D01*
X039797Y011967D01*
X039748Y012003D01*
X039697Y012036D01*
X039645Y012065D01*
X039590Y012092D01*
X039535Y012115D01*
X039478Y012135D01*
X039419Y012151D01*
X039360Y012164D01*
X039301Y012173D01*
X039240Y012178D01*
X039180Y012180D01*
X001180Y012180D01*
X001120Y012178D01*
X001059Y012173D01*
X001000Y012164D01*
X000941Y012151D01*
X000882Y012135D01*
X000825Y012115D01*
X000770Y012092D01*
X000715Y012065D01*
X000663Y012036D01*
X000612Y012003D01*
X000563Y011967D01*
X000517Y011929D01*
X000473Y011887D01*
X000431Y011843D01*
X000393Y011797D01*
X000357Y011748D01*
X000324Y011697D01*
X000295Y011645D01*
X000268Y011590D01*
X000245Y011535D01*
X000225Y011478D01*
X000209Y011419D01*
X000196Y011360D01*
X000187Y011301D01*
X000182Y011240D01*
X000180Y011180D01*
X000180Y001180D01*
X000182Y001120D01*
X000187Y001059D01*
X000196Y001000D01*
X000209Y000941D01*
X000225Y000882D01*
X000245Y000825D01*
X000268Y000770D01*
X000295Y000715D01*
X000324Y000663D01*
X000357Y000612D01*
X000393Y000563D01*
X000431Y000517D01*
X000473Y000473D01*
X000517Y000431D01*
X000563Y000393D01*
X000612Y000357D01*
X000663Y000324D01*
X000715Y000295D01*
X000770Y000268D01*
X000825Y000245D01*
X000882Y000225D01*
X000941Y000209D01*
X001000Y000196D01*
X001059Y000187D01*
X001120Y000182D01*
X001180Y000180D01*
M02*
