G75*
%MOIN*%
%OFA0B0*%
%FSLAX24Y24*%
%IPPOS*%
%LPD*%
%AMOC8*
5,1,8,0,0,1.08239X$1,22.5*
%
%ADD10OC8,0.0480*%
%ADD11R,0.0600X0.0600*%
%ADD12OC8,0.0600*%
%ADD13C,0.0650*%
%ADD14C,0.0160*%
%ADD15C,0.1660*%
D10*
X002680Y004180D03*
X010180Y004180D03*
X011680Y004180D03*
X015180Y004180D03*
X016680Y004180D03*
X024180Y004180D03*
X027180Y004180D03*
X028680Y004180D03*
X030180Y004180D03*
X030180Y007180D03*
X028680Y007180D03*
X027180Y007180D03*
X024180Y007180D03*
X016680Y007180D03*
X015180Y007180D03*
X011680Y007180D03*
X010180Y007180D03*
X002680Y007180D03*
D11*
X007180Y009180D03*
X021180Y009180D03*
X035180Y009180D03*
D12*
X034180Y009180D03*
X033180Y009180D03*
X020180Y009180D03*
X019180Y009180D03*
X006180Y009180D03*
X005180Y009180D03*
D13*
X003680Y004180D03*
X008680Y004180D03*
X008680Y002180D03*
X003680Y002180D03*
X017680Y002180D03*
X022680Y002180D03*
X022680Y004180D03*
X017680Y004180D03*
X031680Y004180D03*
X036680Y004180D03*
X036680Y002180D03*
X031680Y002180D03*
D14*
X001052Y000370D02*
X000808Y000449D01*
X000600Y000600D01*
X000449Y000808D01*
X000370Y001052D01*
X000360Y001180D01*
X000360Y011180D01*
X000370Y011308D01*
X000449Y011552D01*
X000600Y011760D01*
X000808Y011911D01*
X001052Y011990D01*
X001180Y012000D01*
X039180Y012000D01*
X039308Y011990D01*
X039552Y011911D01*
X039760Y011760D01*
X039911Y011552D01*
X039990Y011308D01*
X040000Y011180D01*
X040000Y001180D01*
X039990Y001052D01*
X039911Y000808D01*
X039760Y000600D01*
X039552Y000449D01*
X039308Y000370D01*
X039180Y000360D01*
X001180Y000360D01*
X001052Y000370D01*
X000742Y000497D02*
X039618Y000497D01*
X039800Y000656D02*
X000560Y000656D01*
X000447Y000814D02*
X039913Y000814D01*
X039964Y000973D02*
X000396Y000973D01*
X000364Y001131D02*
X039996Y001131D01*
X040000Y001290D02*
X000360Y001290D01*
X000360Y001448D02*
X040000Y001448D01*
X040000Y001607D02*
X000360Y001607D01*
X000360Y001765D02*
X003392Y001765D01*
X003415Y001748D02*
X003486Y001712D01*
X003562Y001688D01*
X003640Y001675D01*
X003652Y001675D01*
X003652Y002152D01*
X003175Y002152D01*
X003175Y002140D01*
X003188Y002062D01*
X003212Y001986D01*
X003248Y001915D01*
X003295Y001851D01*
X003351Y001795D01*
X003415Y001748D01*
X003652Y001765D02*
X003708Y001765D01*
X003708Y001675D02*
X003720Y001675D01*
X003798Y001688D01*
X003874Y001712D01*
X003945Y001748D01*
X004009Y001795D01*
X004065Y001851D01*
X004112Y001915D01*
X004148Y001986D01*
X004172Y002062D01*
X004185Y002140D01*
X004185Y002152D01*
X003708Y002152D01*
X003708Y002208D01*
X003652Y002208D01*
X003652Y002152D01*
X003708Y002152D01*
X003708Y001675D01*
X003968Y001765D02*
X008392Y001765D01*
X008415Y001748D02*
X008486Y001712D01*
X008562Y001688D01*
X008640Y001675D01*
X008652Y001675D01*
X008652Y002152D01*
X008175Y002152D01*
X008175Y002140D01*
X008188Y002062D01*
X008212Y001986D01*
X008248Y001915D01*
X008295Y001851D01*
X008351Y001795D01*
X008415Y001748D01*
X008652Y001765D02*
X008708Y001765D01*
X008708Y001675D02*
X008720Y001675D01*
X008798Y001688D01*
X008874Y001712D01*
X008945Y001748D01*
X009009Y001795D01*
X009065Y001851D01*
X009112Y001915D01*
X009148Y001986D01*
X009172Y002062D01*
X009185Y002140D01*
X009185Y002152D01*
X008708Y002152D01*
X008708Y002208D01*
X008652Y002208D01*
X008652Y002152D01*
X008708Y002152D01*
X008708Y001675D01*
X008968Y001765D02*
X017392Y001765D01*
X017415Y001748D02*
X017486Y001712D01*
X017562Y001688D01*
X017640Y001675D01*
X017652Y001675D01*
X017652Y002152D01*
X017175Y002152D01*
X017175Y002140D01*
X017188Y002062D01*
X017212Y001986D01*
X017248Y001915D01*
X017295Y001851D01*
X017351Y001795D01*
X017415Y001748D01*
X017652Y001765D02*
X017708Y001765D01*
X017708Y001675D02*
X017720Y001675D01*
X017798Y001688D01*
X017874Y001712D01*
X017945Y001748D01*
X018009Y001795D01*
X018065Y001851D01*
X018112Y001915D01*
X018148Y001986D01*
X018172Y002062D01*
X018185Y002140D01*
X018185Y002152D01*
X017708Y002152D01*
X017708Y002208D01*
X017652Y002208D01*
X017652Y002152D01*
X017708Y002152D01*
X017708Y001675D01*
X017968Y001765D02*
X022392Y001765D01*
X022415Y001748D02*
X022486Y001712D01*
X022562Y001688D01*
X022640Y001675D01*
X022652Y001675D01*
X022652Y002152D01*
X022175Y002152D01*
X022175Y002140D01*
X022188Y002062D01*
X022212Y001986D01*
X022248Y001915D01*
X022295Y001851D01*
X022351Y001795D01*
X022415Y001748D01*
X022652Y001765D02*
X022708Y001765D01*
X022708Y001675D02*
X022720Y001675D01*
X022798Y001688D01*
X022874Y001712D01*
X022945Y001748D01*
X023009Y001795D01*
X023065Y001851D01*
X023112Y001915D01*
X023148Y001986D01*
X023172Y002062D01*
X023185Y002140D01*
X023185Y002152D01*
X022708Y002152D01*
X022708Y002208D01*
X022652Y002208D01*
X022652Y002152D01*
X022708Y002152D01*
X022708Y001675D01*
X022968Y001765D02*
X031392Y001765D01*
X031415Y001748D02*
X031486Y001712D01*
X031562Y001688D01*
X031640Y001675D01*
X031652Y001675D01*
X031652Y002152D01*
X031175Y002152D01*
X031175Y002140D01*
X031188Y002062D01*
X031212Y001986D01*
X031248Y001915D01*
X031295Y001851D01*
X031351Y001795D01*
X031415Y001748D01*
X031652Y001765D02*
X031708Y001765D01*
X031708Y001675D02*
X031720Y001675D01*
X031798Y001688D01*
X031874Y001712D01*
X031945Y001748D01*
X032009Y001795D01*
X032065Y001851D01*
X032112Y001915D01*
X032148Y001986D01*
X032172Y002062D01*
X032185Y002140D01*
X032185Y002152D01*
X031708Y002152D01*
X031708Y002208D01*
X031652Y002208D01*
X031652Y002152D01*
X031708Y002152D01*
X031708Y001675D01*
X031968Y001765D02*
X036392Y001765D01*
X036415Y001748D02*
X036486Y001712D01*
X036562Y001688D01*
X036640Y001675D01*
X036652Y001675D01*
X036652Y002152D01*
X036175Y002152D01*
X036175Y002140D01*
X036188Y002062D01*
X036212Y001986D01*
X036248Y001915D01*
X036295Y001851D01*
X036351Y001795D01*
X036415Y001748D01*
X036652Y001765D02*
X036708Y001765D01*
X036708Y001675D02*
X036720Y001675D01*
X036798Y001688D01*
X036874Y001712D01*
X036945Y001748D01*
X037009Y001795D01*
X037065Y001851D01*
X037112Y001915D01*
X037148Y001986D01*
X037172Y002062D01*
X037185Y002140D01*
X037185Y002152D01*
X036708Y002152D01*
X036708Y002208D01*
X036652Y002208D01*
X036652Y002152D01*
X036708Y002152D01*
X036708Y001675D01*
X036968Y001765D02*
X040000Y001765D01*
X040000Y001924D02*
X037116Y001924D01*
X037176Y002082D02*
X040000Y002082D01*
X040000Y002241D02*
X037182Y002241D01*
X037185Y002220D02*
X037172Y002298D01*
X037148Y002374D01*
X037112Y002445D01*
X037065Y002509D01*
X037009Y002565D01*
X036945Y002612D01*
X036874Y002648D01*
X036798Y002672D01*
X036720Y002685D01*
X036708Y002685D01*
X036708Y002208D01*
X037185Y002208D01*
X037185Y002220D01*
X037135Y002399D02*
X040000Y002399D01*
X040000Y002558D02*
X037016Y002558D01*
X036708Y002558D02*
X036652Y002558D01*
X036652Y002685D02*
X036640Y002685D01*
X036562Y002672D01*
X036486Y002648D01*
X036415Y002612D01*
X036351Y002565D01*
X036295Y002509D01*
X036248Y002445D01*
X036212Y002374D01*
X036188Y002298D01*
X036175Y002220D01*
X036175Y002208D01*
X036652Y002208D01*
X036652Y002685D01*
X036344Y002558D02*
X032016Y002558D01*
X032009Y002565D02*
X031945Y002612D01*
X031874Y002648D01*
X031798Y002672D01*
X031720Y002685D01*
X031708Y002685D01*
X031708Y002208D01*
X032185Y002208D01*
X032185Y002220D01*
X032172Y002298D01*
X032148Y002374D01*
X032112Y002445D01*
X032065Y002509D01*
X032009Y002565D01*
X032135Y002399D02*
X036225Y002399D01*
X036178Y002241D02*
X032182Y002241D01*
X032176Y002082D02*
X036184Y002082D01*
X036244Y001924D02*
X032116Y001924D01*
X031708Y001924D02*
X031652Y001924D01*
X031652Y002082D02*
X031708Y002082D01*
X031652Y002208D02*
X031175Y002208D01*
X031175Y002220D01*
X031188Y002298D01*
X031212Y002374D01*
X031248Y002445D01*
X031295Y002509D01*
X031351Y002565D01*
X031415Y002612D01*
X031486Y002648D01*
X031562Y002672D01*
X031640Y002685D01*
X031652Y002685D01*
X031652Y002208D01*
X031652Y002241D02*
X031708Y002241D01*
X031708Y002399D02*
X031652Y002399D01*
X031652Y002558D02*
X031708Y002558D01*
X031344Y002558D02*
X023016Y002558D01*
X023009Y002565D02*
X022945Y002612D01*
X022874Y002648D01*
X022798Y002672D01*
X022720Y002685D01*
X022708Y002685D01*
X022708Y002208D01*
X023185Y002208D01*
X023185Y002220D01*
X023172Y002298D01*
X023148Y002374D01*
X023112Y002445D01*
X023065Y002509D01*
X023009Y002565D01*
X023135Y002399D02*
X031225Y002399D01*
X031178Y002241D02*
X023182Y002241D01*
X023176Y002082D02*
X031184Y002082D01*
X031244Y001924D02*
X023116Y001924D01*
X022708Y001924D02*
X022652Y001924D01*
X022652Y002082D02*
X022708Y002082D01*
X022652Y002208D02*
X022175Y002208D01*
X022175Y002220D01*
X022188Y002298D01*
X022212Y002374D01*
X022248Y002445D01*
X022295Y002509D01*
X022351Y002565D01*
X022415Y002612D01*
X022486Y002648D01*
X022562Y002672D01*
X022640Y002685D01*
X022652Y002685D01*
X022652Y002208D01*
X022652Y002241D02*
X022708Y002241D01*
X022708Y002399D02*
X022652Y002399D01*
X022652Y002558D02*
X022708Y002558D01*
X022344Y002558D02*
X018016Y002558D01*
X018009Y002565D02*
X017945Y002612D01*
X017874Y002648D01*
X017798Y002672D01*
X017720Y002685D01*
X017708Y002685D01*
X017708Y002208D01*
X018185Y002208D01*
X018185Y002220D01*
X018172Y002298D01*
X018148Y002374D01*
X018112Y002445D01*
X018065Y002509D01*
X018009Y002565D01*
X018135Y002399D02*
X022225Y002399D01*
X022178Y002241D02*
X018182Y002241D01*
X018176Y002082D02*
X022184Y002082D01*
X022244Y001924D02*
X018116Y001924D01*
X017708Y001924D02*
X017652Y001924D01*
X017652Y002082D02*
X017708Y002082D01*
X017652Y002208D02*
X017175Y002208D01*
X017175Y002220D01*
X017188Y002298D01*
X017212Y002374D01*
X017248Y002445D01*
X017295Y002509D01*
X017351Y002565D01*
X017415Y002612D01*
X017486Y002648D01*
X017562Y002672D01*
X017640Y002685D01*
X017652Y002685D01*
X017652Y002208D01*
X017652Y002241D02*
X017708Y002241D01*
X017708Y002399D02*
X017652Y002399D01*
X017652Y002558D02*
X017708Y002558D01*
X017344Y002558D02*
X009016Y002558D01*
X009009Y002565D02*
X008945Y002612D01*
X008874Y002648D01*
X008798Y002672D01*
X008720Y002685D01*
X008708Y002685D01*
X008708Y002208D01*
X009185Y002208D01*
X009185Y002220D01*
X009172Y002298D01*
X009148Y002374D01*
X009112Y002445D01*
X009065Y002509D01*
X009009Y002565D01*
X009135Y002399D02*
X017225Y002399D01*
X017178Y002241D02*
X009182Y002241D01*
X009176Y002082D02*
X017184Y002082D01*
X017244Y001924D02*
X009116Y001924D01*
X008708Y001924D02*
X008652Y001924D01*
X008652Y002082D02*
X008708Y002082D01*
X008652Y002208D02*
X008175Y002208D01*
X008175Y002220D01*
X008188Y002298D01*
X008212Y002374D01*
X008248Y002445D01*
X008295Y002509D01*
X008351Y002565D01*
X008415Y002612D01*
X008486Y002648D01*
X008562Y002672D01*
X008640Y002685D01*
X008652Y002685D01*
X008652Y002208D01*
X008652Y002241D02*
X008708Y002241D01*
X008708Y002399D02*
X008652Y002399D01*
X008652Y002558D02*
X008708Y002558D01*
X008344Y002558D02*
X004016Y002558D01*
X004009Y002565D02*
X003945Y002612D01*
X003874Y002648D01*
X003798Y002672D01*
X003720Y002685D01*
X003708Y002685D01*
X003708Y002208D01*
X004185Y002208D01*
X004185Y002220D01*
X004172Y002298D01*
X004148Y002374D01*
X004112Y002445D01*
X004065Y002509D01*
X004009Y002565D01*
X004135Y002399D02*
X008225Y002399D01*
X008178Y002241D02*
X004182Y002241D01*
X004176Y002082D02*
X008184Y002082D01*
X008244Y001924D02*
X004116Y001924D01*
X003708Y001924D02*
X003652Y001924D01*
X003652Y002082D02*
X003708Y002082D01*
X003652Y002208D02*
X003175Y002208D01*
X003175Y002220D01*
X003188Y002298D01*
X003212Y002374D01*
X003248Y002445D01*
X003295Y002509D01*
X003351Y002565D01*
X003415Y002612D01*
X003486Y002648D01*
X003562Y002672D01*
X003640Y002685D01*
X003652Y002685D01*
X003652Y002208D01*
X003652Y002241D02*
X003708Y002241D01*
X003708Y002399D02*
X003652Y002399D01*
X003652Y002558D02*
X003708Y002558D01*
X003344Y002558D02*
X000360Y002558D01*
X000360Y002716D02*
X040000Y002716D01*
X040000Y002875D02*
X000360Y002875D01*
X000360Y003033D02*
X040000Y003033D01*
X040000Y003192D02*
X000360Y003192D01*
X000360Y003350D02*
X040000Y003350D01*
X040000Y003509D02*
X000360Y003509D01*
X000360Y003667D02*
X040000Y003667D01*
X040000Y003826D02*
X037039Y003826D01*
X037108Y003894D02*
X036966Y003752D01*
X036780Y003675D01*
X036580Y003675D01*
X036394Y003752D01*
X036252Y003894D01*
X036241Y003920D01*
X032119Y003920D01*
X032108Y003894D01*
X031966Y003752D01*
X031780Y003675D01*
X031580Y003675D01*
X031394Y003752D01*
X031252Y003894D01*
X031241Y003920D01*
X030514Y003920D01*
X030354Y003760D01*
X030006Y003760D01*
X029846Y003920D01*
X029014Y003920D01*
X028854Y003760D01*
X028506Y003760D01*
X028346Y003920D01*
X027514Y003920D01*
X027354Y003760D01*
X027006Y003760D01*
X026760Y004006D01*
X026760Y004354D01*
X027006Y004600D01*
X027354Y004600D01*
X027514Y004440D01*
X028346Y004440D01*
X028506Y004600D01*
X028854Y004600D01*
X029014Y004440D01*
X029846Y004440D01*
X030006Y004600D01*
X030354Y004600D01*
X030514Y004440D01*
X031241Y004440D01*
X031252Y004466D01*
X031394Y004608D01*
X031580Y004685D01*
X031780Y004685D01*
X031966Y004608D01*
X032108Y004466D01*
X032119Y004440D01*
X036241Y004440D01*
X036252Y004466D01*
X036394Y004608D01*
X036580Y004685D01*
X036780Y004685D01*
X036966Y004608D01*
X037108Y004466D01*
X037185Y004280D01*
X037185Y004080D01*
X037108Y003894D01*
X037145Y003984D02*
X040000Y003984D01*
X040000Y004143D02*
X037185Y004143D01*
X037176Y004301D02*
X040000Y004301D01*
X040000Y004460D02*
X037111Y004460D01*
X036942Y004618D02*
X040000Y004618D01*
X040000Y004777D02*
X000360Y004777D01*
X000360Y004618D02*
X003418Y004618D01*
X003394Y004608D02*
X003252Y004466D01*
X003241Y004440D01*
X003014Y004440D01*
X002854Y004600D01*
X002506Y004600D01*
X002260Y004354D01*
X002260Y004006D01*
X002506Y003760D01*
X002854Y003760D01*
X003014Y003920D01*
X003241Y003920D01*
X003252Y003894D01*
X003394Y003752D01*
X003580Y003675D01*
X003780Y003675D01*
X003966Y003752D01*
X004108Y003894D01*
X004119Y003920D01*
X008241Y003920D01*
X008252Y003894D01*
X008394Y003752D01*
X008580Y003675D01*
X008780Y003675D01*
X008966Y003752D01*
X009108Y003894D01*
X009119Y003920D01*
X009846Y003920D01*
X010006Y003760D01*
X010354Y003760D01*
X010514Y003920D01*
X011346Y003920D01*
X011506Y003760D01*
X011854Y003760D01*
X012100Y004006D01*
X012100Y004354D01*
X011854Y004600D01*
X011506Y004600D01*
X011346Y004440D01*
X010514Y004440D01*
X010354Y004600D01*
X010006Y004600D01*
X009846Y004440D01*
X009119Y004440D01*
X009108Y004466D01*
X008966Y004608D01*
X008780Y004685D01*
X008580Y004685D01*
X008394Y004608D01*
X008252Y004466D01*
X008241Y004440D01*
X004119Y004440D01*
X004108Y004466D01*
X003966Y004608D01*
X003780Y004685D01*
X003580Y004685D01*
X003394Y004608D01*
X003249Y004460D02*
X002994Y004460D01*
X002680Y004180D02*
X003680Y004180D01*
X008680Y004180D01*
X010180Y004180D01*
X011680Y004180D01*
X012100Y004143D02*
X014760Y004143D01*
X014760Y004006D02*
X015006Y003760D01*
X015354Y003760D01*
X015514Y003920D01*
X016346Y003920D01*
X016506Y003760D01*
X016854Y003760D01*
X017014Y003920D01*
X017241Y003920D01*
X017252Y003894D01*
X017394Y003752D01*
X017580Y003675D01*
X017780Y003675D01*
X017966Y003752D01*
X018108Y003894D01*
X018119Y003920D01*
X022241Y003920D01*
X022252Y003894D01*
X022394Y003752D01*
X022580Y003675D01*
X022780Y003675D01*
X022966Y003752D01*
X023108Y003894D01*
X023119Y003920D01*
X023846Y003920D01*
X024006Y003760D01*
X024354Y003760D01*
X024600Y004006D01*
X024600Y004354D01*
X024354Y004600D01*
X024006Y004600D01*
X023846Y004440D01*
X023119Y004440D01*
X023108Y004466D01*
X022966Y004608D01*
X022780Y004685D01*
X022580Y004685D01*
X022394Y004608D01*
X022252Y004466D01*
X022241Y004440D01*
X018119Y004440D01*
X018108Y004466D01*
X017966Y004608D01*
X017780Y004685D01*
X017580Y004685D01*
X017394Y004608D01*
X017252Y004466D01*
X017241Y004440D01*
X017014Y004440D01*
X016854Y004600D01*
X016506Y004600D01*
X016346Y004440D01*
X015514Y004440D01*
X015354Y004600D01*
X015006Y004600D01*
X014760Y004354D01*
X014760Y004006D01*
X014782Y003984D02*
X012078Y003984D01*
X011919Y003826D02*
X014941Y003826D01*
X015419Y003826D02*
X016441Y003826D01*
X016919Y003826D02*
X017321Y003826D01*
X018039Y003826D02*
X022321Y003826D01*
X023039Y003826D02*
X023941Y003826D01*
X024419Y003826D02*
X026941Y003826D01*
X027419Y003826D02*
X028441Y003826D01*
X028919Y003826D02*
X029941Y003826D01*
X030419Y003826D02*
X031321Y003826D01*
X032039Y003826D02*
X036321Y003826D01*
X036680Y004180D02*
X031680Y004180D01*
X030180Y004180D01*
X028680Y004180D01*
X027180Y004180D01*
X026760Y004143D02*
X024600Y004143D01*
X024600Y004301D02*
X026760Y004301D01*
X026866Y004460D02*
X024494Y004460D01*
X023866Y004460D02*
X023111Y004460D01*
X022942Y004618D02*
X031418Y004618D01*
X031249Y004460D02*
X030494Y004460D01*
X029866Y004460D02*
X028994Y004460D01*
X028366Y004460D02*
X027494Y004460D01*
X026782Y003984D02*
X024578Y003984D01*
X024180Y004180D02*
X022680Y004180D01*
X017680Y004180D01*
X016680Y004180D01*
X015180Y004180D01*
X014760Y004301D02*
X012100Y004301D01*
X011994Y004460D02*
X014866Y004460D01*
X015494Y004460D02*
X016366Y004460D01*
X016994Y004460D02*
X017249Y004460D01*
X017418Y004618D02*
X008942Y004618D01*
X009111Y004460D02*
X009866Y004460D01*
X010494Y004460D02*
X011366Y004460D01*
X011441Y003826D02*
X010419Y003826D01*
X009941Y003826D02*
X009039Y003826D01*
X008321Y003826D02*
X004039Y003826D01*
X003321Y003826D02*
X002919Y003826D01*
X002441Y003826D02*
X000360Y003826D01*
X000360Y003984D02*
X002282Y003984D01*
X002260Y004143D02*
X000360Y004143D01*
X000360Y004301D02*
X002260Y004301D01*
X002366Y004460D02*
X000360Y004460D01*
X000360Y004935D02*
X040000Y004935D01*
X040000Y005094D02*
X000360Y005094D01*
X000360Y005252D02*
X040000Y005252D01*
X040000Y005411D02*
X000360Y005411D01*
X000360Y005569D02*
X022923Y005569D01*
X023033Y005460D02*
X023128Y005420D01*
X025732Y005420D01*
X025827Y005460D01*
X025900Y005533D01*
X027128Y006760D01*
X027354Y006760D01*
X027600Y007006D01*
X027600Y007232D01*
X028538Y008170D01*
X033982Y008170D01*
X034077Y008210D01*
X034150Y008283D01*
X034400Y008533D01*
X034440Y008628D01*
X034440Y008761D01*
X034660Y008981D01*
X034660Y009379D01*
X034379Y009660D01*
X033981Y009660D01*
X033700Y009379D01*
X033700Y008981D01*
X033907Y008774D01*
X033822Y008690D01*
X028378Y008690D01*
X028283Y008650D01*
X027232Y007600D01*
X027006Y007600D01*
X026760Y007354D01*
X026760Y007128D01*
X025572Y005940D01*
X023288Y005940D01*
X020453Y008774D01*
X020660Y008981D01*
X020660Y009379D01*
X020379Y009660D01*
X019981Y009660D01*
X019700Y009379D01*
X019700Y008981D01*
X019907Y008774D01*
X019572Y008440D01*
X016128Y008440D01*
X016033Y008400D01*
X015960Y008327D01*
X015232Y007600D01*
X015006Y007600D01*
X014760Y007354D01*
X014760Y007128D01*
X014072Y006440D01*
X011288Y006440D01*
X010600Y007128D01*
X010600Y007354D01*
X010354Y007600D01*
X010128Y007600D01*
X009827Y007900D01*
X009732Y007940D01*
X007288Y007940D01*
X006453Y008774D01*
X006660Y008981D01*
X006660Y009379D01*
X006379Y009660D01*
X005981Y009660D01*
X005700Y009379D01*
X005700Y008981D01*
X005920Y008761D01*
X005920Y008628D01*
X005960Y008533D01*
X006960Y007533D01*
X007033Y007460D01*
X007128Y007420D01*
X009572Y007420D01*
X009760Y007232D01*
X009760Y007006D01*
X010006Y006760D01*
X010232Y006760D01*
X010960Y006033D01*
X011033Y005960D01*
X011128Y005920D01*
X014232Y005920D01*
X014327Y005960D01*
X015128Y006760D01*
X015354Y006760D01*
X015600Y007006D01*
X015600Y007232D01*
X016288Y007920D01*
X019732Y007920D01*
X019827Y007960D01*
X019900Y008033D01*
X020180Y008312D01*
X023033Y005460D01*
X023180Y005680D02*
X020180Y008680D01*
X019680Y008180D01*
X016180Y008180D01*
X015180Y007180D01*
X014180Y006180D01*
X011180Y006180D01*
X010180Y007180D01*
X009680Y007680D01*
X007180Y007680D01*
X006180Y008680D01*
X006180Y009180D01*
X006660Y009215D02*
X006700Y009215D01*
X006700Y009373D02*
X006660Y009373D01*
X006700Y009532D02*
X006507Y009532D01*
X006700Y009555D02*
X006805Y009660D01*
X007555Y009660D01*
X007660Y009555D01*
X007660Y008805D01*
X007555Y008700D01*
X007528Y008700D01*
X007538Y008690D01*
X010482Y008690D01*
X010577Y008650D01*
X011628Y007600D01*
X011854Y007600D01*
X012100Y007354D01*
X012100Y007006D01*
X011854Y006760D01*
X011506Y006760D01*
X011260Y007006D01*
X011260Y007232D01*
X010322Y008170D01*
X007378Y008170D01*
X007283Y008210D01*
X007210Y008283D01*
X007210Y008283D01*
X006960Y008533D01*
X006920Y008628D01*
X006920Y008700D01*
X006805Y008700D01*
X006700Y008805D01*
X006700Y009555D01*
X007180Y009180D02*
X007180Y008680D01*
X007430Y008430D01*
X010430Y008430D01*
X011680Y007180D01*
X012100Y007154D02*
X014760Y007154D01*
X014760Y007313D02*
X012100Y007313D01*
X011983Y007471D02*
X014877Y007471D01*
X015262Y007630D02*
X011598Y007630D01*
X011440Y007788D02*
X015420Y007788D01*
X015997Y007630D02*
X020863Y007630D01*
X020704Y007788D02*
X016156Y007788D01*
X016506Y007600D02*
X016260Y007354D01*
X016260Y007180D01*
X016680Y007180D01*
X016680Y007180D01*
X016680Y007600D01*
X016854Y007600D01*
X017100Y007354D01*
X017100Y007180D01*
X016680Y007180D01*
X016680Y007180D01*
X016680Y007180D01*
X016680Y007600D01*
X016506Y007600D01*
X016377Y007471D02*
X015839Y007471D01*
X015680Y007313D02*
X016260Y007313D01*
X016260Y007180D02*
X016260Y007006D01*
X016506Y006760D01*
X016680Y006760D01*
X016854Y006760D01*
X017100Y007006D01*
X017100Y007180D01*
X016680Y007180D01*
X016680Y006760D01*
X016680Y007180D01*
X016680Y007180D01*
X016260Y007180D01*
X016260Y007154D02*
X015600Y007154D01*
X015589Y006996D02*
X016271Y006996D01*
X016680Y006996D02*
X016680Y006996D01*
X016680Y007154D02*
X016680Y007154D01*
X016680Y007313D02*
X016680Y007313D01*
X016680Y007471D02*
X016680Y007471D01*
X016983Y007471D02*
X021021Y007471D01*
X021180Y007313D02*
X017100Y007313D01*
X017100Y007154D02*
X021338Y007154D01*
X021497Y006996D02*
X017089Y006996D01*
X016931Y006837D02*
X021655Y006837D01*
X021814Y006679D02*
X015046Y006679D01*
X014888Y006520D02*
X021972Y006520D01*
X022131Y006362D02*
X014729Y006362D01*
X014571Y006203D02*
X022289Y006203D01*
X022448Y006045D02*
X014412Y006045D01*
X014152Y006520D02*
X011208Y006520D01*
X011049Y006679D02*
X014311Y006679D01*
X014469Y006837D02*
X011931Y006837D01*
X011429Y006837D02*
X010891Y006837D01*
X010314Y006679D02*
X000360Y006679D01*
X000360Y006837D02*
X002429Y006837D01*
X002506Y006760D02*
X002260Y007006D01*
X002260Y007180D01*
X002680Y007180D01*
X002680Y007180D01*
X002680Y007600D01*
X002854Y007600D01*
X003100Y007354D01*
X003100Y007180D01*
X002680Y007180D01*
X002680Y007180D01*
X002680Y007180D01*
X002680Y007600D01*
X002506Y007600D01*
X002260Y007354D01*
X002260Y007180D01*
X002680Y007180D01*
X003100Y007180D01*
X003100Y007006D01*
X002854Y006760D01*
X002680Y006760D01*
X002680Y007180D01*
X002680Y007180D01*
X002680Y006760D01*
X002506Y006760D01*
X002680Y006837D02*
X002680Y006837D01*
X002931Y006837D02*
X009929Y006837D01*
X009771Y006996D02*
X003089Y006996D01*
X003100Y007154D02*
X009760Y007154D01*
X009680Y007313D02*
X003100Y007313D01*
X002983Y007471D02*
X007021Y007471D01*
X006863Y007630D02*
X000360Y007630D01*
X000360Y007788D02*
X006704Y007788D01*
X006546Y007947D02*
X000360Y007947D01*
X000360Y008105D02*
X006387Y008105D01*
X006229Y008264D02*
X000360Y008264D01*
X000360Y008422D02*
X006070Y008422D01*
X005940Y008581D02*
X000360Y008581D01*
X000360Y008739D02*
X004942Y008739D01*
X004981Y008700D02*
X005160Y008700D01*
X005160Y009160D01*
X005200Y009160D01*
X005200Y009200D01*
X005660Y009200D01*
X005660Y009379D01*
X005379Y009660D01*
X005200Y009660D01*
X005200Y009200D01*
X005160Y009200D01*
X005160Y009660D01*
X004981Y009660D01*
X004700Y009379D01*
X004700Y009200D01*
X005160Y009200D01*
X005160Y009160D01*
X004700Y009160D01*
X004700Y008981D01*
X004981Y008700D01*
X005160Y008739D02*
X005200Y008739D01*
X005200Y008700D02*
X005379Y008700D01*
X005660Y008981D01*
X005660Y009160D01*
X005200Y009160D01*
X005200Y008700D01*
X005418Y008739D02*
X005920Y008739D01*
X005784Y008898D02*
X005576Y008898D01*
X005660Y009056D02*
X005700Y009056D01*
X005700Y009215D02*
X005660Y009215D01*
X005660Y009373D02*
X005700Y009373D01*
X005853Y009532D02*
X005507Y009532D01*
X005200Y009532D02*
X005160Y009532D01*
X005160Y009373D02*
X005200Y009373D01*
X005200Y009215D02*
X005160Y009215D01*
X005160Y009056D02*
X005200Y009056D01*
X005200Y008898D02*
X005160Y008898D01*
X004784Y008898D02*
X000360Y008898D01*
X000360Y009056D02*
X004700Y009056D01*
X004700Y009215D02*
X000360Y009215D01*
X000360Y009373D02*
X004700Y009373D01*
X004853Y009532D02*
X000360Y009532D01*
X000360Y009690D02*
X040000Y009690D01*
X040000Y009532D02*
X035660Y009532D01*
X035660Y009555D02*
X035555Y009660D01*
X034805Y009660D01*
X034700Y009555D01*
X034700Y008805D01*
X034805Y008700D01*
X034832Y008700D01*
X034072Y007940D01*
X029128Y007940D01*
X029033Y007900D01*
X028732Y007600D01*
X028506Y007600D01*
X028260Y007354D01*
X028260Y007006D01*
X028506Y006760D01*
X028854Y006760D01*
X029100Y007006D01*
X029100Y007232D01*
X029288Y007420D01*
X029826Y007420D01*
X029760Y007354D01*
X029760Y007180D01*
X030180Y007180D01*
X030600Y007180D01*
X030600Y007354D01*
X030534Y007420D01*
X034232Y007420D01*
X034327Y007460D01*
X034400Y007533D01*
X035400Y008533D01*
X035440Y008628D01*
X035440Y008700D01*
X035555Y008700D01*
X035660Y008805D01*
X035660Y009555D01*
X035660Y009373D02*
X040000Y009373D01*
X040000Y009215D02*
X035660Y009215D01*
X035660Y009056D02*
X040000Y009056D01*
X040000Y008898D02*
X035660Y008898D01*
X035594Y008739D02*
X040000Y008739D01*
X040000Y008581D02*
X035420Y008581D01*
X035290Y008422D02*
X040000Y008422D01*
X040000Y008264D02*
X035131Y008264D01*
X034973Y008105D02*
X040000Y008105D01*
X040000Y007947D02*
X034814Y007947D01*
X034656Y007788D02*
X040000Y007788D01*
X040000Y007630D02*
X034497Y007630D01*
X034339Y007471D02*
X040000Y007471D01*
X040000Y007313D02*
X030600Y007313D01*
X030600Y007180D02*
X030180Y007180D01*
X030180Y007180D01*
X030180Y006760D01*
X030354Y006760D01*
X030600Y007006D01*
X030600Y007180D01*
X030600Y007154D02*
X040000Y007154D01*
X040000Y006996D02*
X030589Y006996D01*
X030180Y006996D02*
X030180Y006996D01*
X030180Y007154D02*
X030180Y007154D01*
X030180Y007180D02*
X030180Y007180D01*
X030180Y007180D01*
X030180Y006760D01*
X030006Y006760D01*
X029760Y007006D01*
X029760Y007180D01*
X030180Y007180D01*
X029760Y007154D02*
X029100Y007154D01*
X029089Y006996D02*
X029771Y006996D01*
X029929Y006837D02*
X028931Y006837D01*
X028429Y006837D02*
X027431Y006837D01*
X027046Y006679D02*
X040000Y006679D01*
X040000Y006837D02*
X030431Y006837D01*
X030180Y006837D02*
X030180Y006837D01*
X029180Y007680D02*
X028680Y007180D01*
X028260Y007154D02*
X027600Y007154D01*
X027589Y006996D02*
X028271Y006996D01*
X028260Y007313D02*
X027680Y007313D01*
X027839Y007471D02*
X028377Y007471D01*
X027997Y007630D02*
X028762Y007630D01*
X028920Y007788D02*
X028156Y007788D01*
X028314Y007947D02*
X034079Y007947D01*
X034237Y008105D02*
X028473Y008105D01*
X027896Y008264D02*
X021964Y008264D01*
X021806Y008422D02*
X028054Y008422D01*
X028213Y008581D02*
X021647Y008581D01*
X021555Y008700D02*
X021660Y008805D01*
X021660Y009555D01*
X021555Y009660D01*
X020805Y009660D01*
X020700Y009555D01*
X020700Y008805D01*
X020805Y008700D01*
X020920Y008700D01*
X020920Y008628D01*
X020960Y008533D01*
X022460Y007033D01*
X022533Y006960D01*
X022628Y006920D01*
X023846Y006920D01*
X024006Y006760D01*
X024354Y006760D01*
X024600Y007006D01*
X024600Y007354D01*
X024354Y007600D01*
X024006Y007600D01*
X023846Y007440D01*
X022788Y007440D01*
X021528Y008700D01*
X021555Y008700D01*
X021594Y008739D02*
X032942Y008739D01*
X032981Y008700D02*
X033160Y008700D01*
X033160Y009160D01*
X033200Y009160D01*
X033200Y009200D01*
X033660Y009200D01*
X033660Y009379D01*
X033379Y009660D01*
X033200Y009660D01*
X033200Y009200D01*
X033160Y009200D01*
X033160Y009660D01*
X032981Y009660D01*
X032700Y009379D01*
X032700Y009200D01*
X033160Y009200D01*
X033160Y009160D01*
X032700Y009160D01*
X032700Y008981D01*
X032981Y008700D01*
X033160Y008739D02*
X033200Y008739D01*
X033200Y008700D02*
X033379Y008700D01*
X033660Y008981D01*
X033660Y009160D01*
X033200Y009160D01*
X033200Y008700D01*
X033418Y008739D02*
X033871Y008739D01*
X034180Y008680D02*
X033930Y008430D01*
X028430Y008430D01*
X027180Y007180D01*
X025680Y005680D01*
X023180Y005680D01*
X022765Y005728D02*
X000360Y005728D01*
X000360Y005886D02*
X022606Y005886D01*
X023183Y006045D02*
X025677Y006045D01*
X025835Y006203D02*
X023025Y006203D01*
X022866Y006362D02*
X025994Y006362D01*
X026152Y006520D02*
X022708Y006520D01*
X022549Y006679D02*
X026311Y006679D01*
X026469Y006837D02*
X024431Y006837D01*
X023929Y006837D02*
X022391Y006837D01*
X022497Y006996D02*
X022232Y006996D01*
X022338Y007154D02*
X022074Y007154D01*
X022180Y007313D02*
X021915Y007313D01*
X022021Y007471D02*
X021757Y007471D01*
X021863Y007630D02*
X021598Y007630D01*
X021704Y007788D02*
X021440Y007788D01*
X021546Y007947D02*
X021281Y007947D01*
X021387Y008105D02*
X021123Y008105D01*
X021229Y008264D02*
X020964Y008264D01*
X021070Y008422D02*
X020806Y008422D01*
X020940Y008581D02*
X020647Y008581D01*
X020766Y008739D02*
X020489Y008739D01*
X020180Y008680D02*
X020180Y009180D01*
X020660Y009215D02*
X020700Y009215D01*
X020700Y009373D02*
X020660Y009373D01*
X020700Y009532D02*
X020507Y009532D01*
X019853Y009532D02*
X019507Y009532D01*
X019379Y009660D02*
X019200Y009660D01*
X019200Y009200D01*
X019660Y009200D01*
X019660Y009379D01*
X019379Y009660D01*
X019160Y009660D02*
X018981Y009660D01*
X018700Y009379D01*
X018700Y009200D01*
X019160Y009200D01*
X019160Y009660D01*
X019160Y009532D02*
X019200Y009532D01*
X019200Y009373D02*
X019160Y009373D01*
X019160Y009215D02*
X019200Y009215D01*
X019200Y009200D02*
X019160Y009200D01*
X019160Y009160D01*
X019200Y009160D01*
X019200Y009200D01*
X019200Y009160D02*
X019660Y009160D01*
X019660Y008981D01*
X019379Y008700D01*
X019200Y008700D01*
X019200Y009160D01*
X019160Y009160D02*
X019160Y008700D01*
X018981Y008700D01*
X018700Y008981D01*
X018700Y009160D01*
X019160Y009160D01*
X019160Y009056D02*
X019200Y009056D01*
X019200Y008898D02*
X019160Y008898D01*
X018784Y008898D02*
X007660Y008898D01*
X007660Y009056D02*
X018700Y009056D01*
X018700Y009215D02*
X007660Y009215D01*
X007660Y009373D02*
X018700Y009373D01*
X018853Y009532D02*
X007660Y009532D01*
X006700Y009056D02*
X006660Y009056D01*
X006700Y008898D02*
X006576Y008898D01*
X006489Y008739D02*
X006766Y008739D01*
X006647Y008581D02*
X006940Y008581D01*
X007070Y008422D02*
X006806Y008422D01*
X006964Y008264D02*
X007229Y008264D01*
X007123Y008105D02*
X010387Y008105D01*
X010546Y007947D02*
X007281Y007947D01*
X007594Y008739D02*
X018942Y008739D01*
X019160Y008739D02*
X019200Y008739D01*
X019418Y008739D02*
X019871Y008739D01*
X019713Y008581D02*
X010647Y008581D01*
X010806Y008422D02*
X016085Y008422D01*
X015960Y008327D02*
X015960Y008327D01*
X015896Y008264D02*
X010964Y008264D01*
X011123Y008105D02*
X015737Y008105D01*
X015579Y007947D02*
X011281Y007947D01*
X010704Y007788D02*
X009940Y007788D01*
X010098Y007630D02*
X010863Y007630D01*
X011021Y007471D02*
X010483Y007471D01*
X010600Y007313D02*
X011180Y007313D01*
X011260Y007154D02*
X010600Y007154D01*
X010732Y006996D02*
X011271Y006996D01*
X012089Y006996D02*
X014628Y006996D01*
X015431Y006837D02*
X016429Y006837D01*
X016680Y006837D02*
X016680Y006837D01*
X019796Y007947D02*
X020546Y007947D01*
X020387Y008105D02*
X019973Y008105D01*
X020131Y008264D02*
X020229Y008264D01*
X021180Y008680D02*
X022680Y007180D01*
X024180Y007180D01*
X024600Y007154D02*
X026760Y007154D01*
X026760Y007313D02*
X024600Y007313D01*
X024483Y007471D02*
X026877Y007471D01*
X027262Y007630D02*
X022598Y007630D01*
X022440Y007788D02*
X027420Y007788D01*
X027579Y007947D02*
X022281Y007947D01*
X022123Y008105D02*
X027737Y008105D01*
X029180Y007680D02*
X034180Y007680D01*
X035180Y008680D01*
X035180Y009180D01*
X034700Y009215D02*
X034660Y009215D01*
X034660Y009373D02*
X034700Y009373D01*
X034700Y009532D02*
X034507Y009532D01*
X034180Y009180D02*
X034180Y008680D01*
X034420Y008581D02*
X034713Y008581D01*
X034766Y008739D02*
X034440Y008739D01*
X034576Y008898D02*
X034700Y008898D01*
X034700Y009056D02*
X034660Y009056D01*
X033784Y008898D02*
X033576Y008898D01*
X033660Y009056D02*
X033700Y009056D01*
X033700Y009215D02*
X033660Y009215D01*
X033660Y009373D02*
X033700Y009373D01*
X033853Y009532D02*
X033507Y009532D01*
X033200Y009532D02*
X033160Y009532D01*
X033160Y009373D02*
X033200Y009373D01*
X033200Y009215D02*
X033160Y009215D01*
X033160Y009056D02*
X033200Y009056D01*
X033200Y008898D02*
X033160Y008898D01*
X032784Y008898D02*
X021660Y008898D01*
X021660Y009056D02*
X032700Y009056D01*
X032700Y009215D02*
X021660Y009215D01*
X021660Y009373D02*
X032700Y009373D01*
X032853Y009532D02*
X021660Y009532D01*
X021180Y009180D02*
X021180Y008680D01*
X020700Y008898D02*
X020576Y008898D01*
X020660Y009056D02*
X020700Y009056D01*
X019784Y008898D02*
X019576Y008898D01*
X019660Y009056D02*
X019700Y009056D01*
X019700Y009215D02*
X019660Y009215D01*
X019660Y009373D02*
X019700Y009373D01*
X022757Y007471D02*
X023877Y007471D01*
X024589Y006996D02*
X026628Y006996D01*
X026888Y006520D02*
X040000Y006520D01*
X040000Y006362D02*
X026729Y006362D01*
X026571Y006203D02*
X040000Y006203D01*
X040000Y006045D02*
X026412Y006045D01*
X026254Y005886D02*
X040000Y005886D01*
X040000Y005728D02*
X026095Y005728D01*
X025937Y005569D02*
X040000Y005569D01*
X036418Y004618D02*
X031942Y004618D01*
X032111Y004460D02*
X036249Y004460D01*
X036652Y002399D02*
X036708Y002399D01*
X036708Y002241D02*
X036652Y002241D01*
X036652Y002082D02*
X036708Y002082D01*
X036708Y001924D02*
X036652Y001924D01*
X022418Y004618D02*
X017942Y004618D01*
X018111Y004460D02*
X022249Y004460D01*
X029180Y007313D02*
X029760Y007313D01*
X034131Y008264D02*
X034396Y008264D01*
X034290Y008422D02*
X034554Y008422D01*
X040000Y009849D02*
X000360Y009849D01*
X000360Y010007D02*
X040000Y010007D01*
X040000Y010166D02*
X000360Y010166D01*
X000360Y010324D02*
X040000Y010324D01*
X040000Y010483D02*
X000360Y010483D01*
X000360Y010641D02*
X040000Y010641D01*
X040000Y010800D02*
X000360Y010800D01*
X000360Y010958D02*
X040000Y010958D01*
X040000Y011117D02*
X000360Y011117D01*
X000367Y011275D02*
X039993Y011275D01*
X039949Y011434D02*
X000411Y011434D01*
X000478Y011592D02*
X039882Y011592D01*
X039767Y011751D02*
X000593Y011751D01*
X000806Y011909D02*
X039554Y011909D01*
X010948Y006045D02*
X000360Y006045D01*
X000360Y006203D02*
X010789Y006203D01*
X010631Y006362D02*
X000360Y006362D01*
X000360Y006520D02*
X010472Y006520D01*
X008418Y004618D02*
X003942Y004618D01*
X004111Y004460D02*
X008249Y004460D01*
X003225Y002399D02*
X000360Y002399D01*
X000360Y002241D02*
X003178Y002241D01*
X003184Y002082D02*
X000360Y002082D01*
X000360Y001924D02*
X003244Y001924D01*
X002680Y006996D02*
X002680Y006996D01*
X002680Y007154D02*
X002680Y007154D01*
X002680Y007313D02*
X002680Y007313D01*
X002680Y007471D02*
X002680Y007471D01*
X002377Y007471D02*
X000360Y007471D01*
X000360Y007313D02*
X002260Y007313D01*
X002260Y007154D02*
X000360Y007154D01*
X000360Y006996D02*
X002271Y006996D01*
D15*
X001680Y010680D03*
X001680Y001680D03*
X038680Y001680D03*
X038680Y010680D03*
M02*
