G75*
%MOIN*%
%OFA0B0*%
%FSLAX24Y24*%
%IPPOS*%
%LPD*%
%AMOC8*
5,1,8,0,0,1.08239X$1,22.5*
%
%ADD10OC8,0.0540*%
%ADD11R,0.0660X0.0660*%
%ADD12OC8,0.0660*%
%ADD13C,0.0710*%
%ADD14C,0.1720*%
D10*
X002680Y004180D03*
X010180Y004180D03*
X011680Y004180D03*
X015180Y004180D03*
X016680Y004180D03*
X024180Y004180D03*
X027180Y004180D03*
X028680Y004180D03*
X030180Y004180D03*
X030180Y007180D03*
X028680Y007180D03*
X027180Y007180D03*
X024180Y007180D03*
X016680Y007180D03*
X015180Y007180D03*
X011680Y007180D03*
X010180Y007180D03*
X002680Y007180D03*
D11*
X007180Y009180D03*
X021180Y009180D03*
X035180Y009180D03*
D12*
X034180Y009180D03*
X033180Y009180D03*
X020180Y009180D03*
X019180Y009180D03*
X006180Y009180D03*
X005180Y009180D03*
D13*
X003680Y004180D03*
X008680Y004180D03*
X008680Y002180D03*
X003680Y002180D03*
X017680Y002180D03*
X022680Y002180D03*
X022680Y004180D03*
X017680Y004180D03*
X031680Y004180D03*
X036680Y004180D03*
X036680Y002180D03*
X031680Y002180D03*
D14*
X001680Y001680D03*
X001680Y010680D03*
X038680Y010680D03*
X038680Y001680D03*
M02*
